<svg xmlns="http://www.w3.org/2000/svg" width="90.367" height="121.171" viewBox="0 0 90.367 121.171">
  <g id="Group_1157454" data-name="Group 1157454" transform="translate(-501.857 -929.604)">
    <g id="Group_1137617" data-name="Group 1137617" transform="translate(-90.945 705.663) rotate(7)">
      <g id="Group_1137602" data-name="Group 1137602" transform="translate(645.42 231.822)">
        <rect id="Rectangle_174996" data-name="Rectangle 174996" width="10.159" height="4.726" transform="translate(1.84 0.58) rotate(15.467)"/>
        <path id="Path_1563458" data-name="Path 1563458" d="M651.681,226.487a.588.588,0,0,1-.155-.02l-9.791-2.71a.576.576,0,0,1-.35-.273.584.584,0,0,1-.054-.441l1.261-4.555a.581.581,0,0,1,.713-.4l9.791,2.709a.582.582,0,0,1,.4.715l-1.261,4.555A.579.579,0,0,1,651.681,226.487Zm-9.078-3.694,8.672,2.4.952-3.438-8.672-2.4Z" transform="translate(-641.31 -218.062)"/>
      </g>
      <g id="Group_1137604" data-name="Group 1137604" transform="translate(638.062 162.504)">
        <g id="Group_1137603" data-name="Group 1137603">
          <path id="Path_1563459" data-name="Path 1563459" d="M686.446,192.853a25.889,25.889,0,1,0-47.467,5.869c3.721,6.553,6.68,10.985,4.67,18.248l17.2,4.762c1.985-7.174,6.638-9.525,13.154-13.122A25.8,25.8,0,0,0,686.446,192.853Z" transform="translate(-635.008 -159.479)" fill="#fff"/>
          <path id="Path_1563460" data-name="Path 1563460" d="M660.947,222.4a.575.575,0,0,1-.154-.021l-17.206-4.76a.581.581,0,0,1-.4-.715c1.816-6.562-.584-10.757-3.9-16.563q-.35-.61-.71-1.244a26.468,26.468,0,1,1,48.53-6h0a26.258,26.258,0,0,1-12.717,16.11l-.654.36c-6.243,3.439-10.368,5.712-12.221,12.408a.576.576,0,0,1-.273.35A.586.586,0,0,1,660.947,222.4Zm-16.5-5.748,16.1,4.456c2.061-6.742,6.514-9.2,12.618-12.558l.653-.36a25.309,25.309,0,1,0-34.244-9.666c.239.422.476.835.707,1.241C643.525,205.433,646.1,209.94,644.448,216.654Z" transform="translate(-635.101 -159.57)"/>
        </g>
      </g>
      <g id="Group_1137605" data-name="Group 1137605" transform="translate(642.637 214.421)">
        <path id="Path_1563461" data-name="Path 1563461" d="M640.324,212.265l2.323-8.4,21.3,5.893-2.323,8.4a11.05,11.05,0,0,1-13.6,7.7V224.9C642.144,223.268,638.7,218.146,640.324,212.265Z" transform="translate(-639.251 -203.289)" fill="#45b3e4"/>
        <path id="Path_1563462" data-name="Path 1563462" d="M652.346,226.512a8.69,8.69,0,0,1-2.327-.318l-4.648-1.286a8.736,8.736,0,0,1-6.09-10.749h0l2.865-10.355a.581.581,0,0,1,.715-.4l20.368,5.636a.581.581,0,0,1,.4.715l-2.864,10.354A8.752,8.752,0,0,1,652.346,226.512ZM640.4,214.469h0a7.574,7.574,0,0,0,5.281,9.321l4.649,1.287a7.583,7.583,0,0,0,9.321-5.281l2.71-9.8-19.25-5.327Z" transform="translate(-638.961 -203.379)"/>
      </g>
      <g id="Group_1137606" data-name="Group 1137606" transform="translate(647.502 219.13)">
        <path id="Path_1563463" data-name="Path 1563463" d="M658.966,212.085a.2.2,0,0,1-.052-.007l-15.706-4.346a.193.193,0,1,1,.1-.372l15.707,4.346a.193.193,0,0,1-.052.379Z" transform="translate(-643.066 -207.353)"/>
      </g>
      <g id="Group_1137607" data-name="Group 1137607" transform="translate(654.179 195.004)">
        <path id="Path_1563464" data-name="Path 1563464" d="M664.6,191.727a.2.2,0,0,1-.052-.007l-15.706-4.346a.193.193,0,1,1,.1-.372l15.706,4.346a.193.193,0,0,1-.052.379Z" transform="translate(-648.7 -186.995)"/>
      </g>
      <g id="Group_1137608" data-name="Group 1137608" transform="translate(673.658 143.719)">
        <path id="Path_1563465" data-name="Path 1563465" d="M665.718,154.536a.534.534,0,0,1-.155-.021.578.578,0,0,1-.4-.713l2.672-9.657a.58.58,0,1,1,1.118.31l-2.672,9.656A.58.58,0,0,1,665.718,154.536Z" transform="translate(-665.137 -143.719)"/>
      </g>
      <g id="Group_1137609" data-name="Group 1137609" transform="translate(698.176 165.349)">
        <path id="Path_1563466" data-name="Path 1563466" d="M686.407,168.07a.58.58,0,0,1-.287-1.084l8.719-4.939a.58.58,0,1,1,.571,1.01l-8.718,4.939A.578.578,0,0,1,686.407,168.07Z" transform="translate(-685.826 -161.971)"/>
      </g>
      <g id="Group_1137610" data-name="Group 1137610" transform="translate(701.662 196.935)">
        <path id="Path_1563467" data-name="Path 1563467" d="M699,192.457a.587.587,0,0,1-.155-.02l-9.657-2.672a.58.58,0,0,1,.309-1.119l9.657,2.672a.58.58,0,0,1-.154,1.139Z" transform="translate(-688.767 -188.624)"/>
      </g>
      <g id="Group_1137611" data-name="Group 1137611" transform="translate(640.506 146.978)">
        <path id="Path_1563468" data-name="Path 1563468" d="M642.682,156.348a.581.581,0,0,1-.5-.3l-4.939-8.717a.58.58,0,0,1,1.01-.572l4.939,8.719a.581.581,0,0,1-.5.866Z" transform="translate(-637.163 -146.469)"/>
      </g>
      <g id="Group_1137612" data-name="Group 1137612" transform="translate(619.099 174.089)">
        <path id="Path_1563469" data-name="Path 1563469" d="M629.337,173.18a.591.591,0,0,1-.155-.021l-9.657-2.672a.581.581,0,0,1,.31-1.119l9.656,2.672a.581.581,0,0,1-.154,1.14Z" transform="translate(-619.099 -169.346)"/>
      </g>
      <g id="Group_1137615" data-name="Group 1137615" transform="translate(650.414 187.531)">
        <g id="Group_1137613" data-name="Group 1137613">
          <path id="Path_1563470" data-name="Path 1563470" d="M648.172,210.089a.63.63,0,0,1-.132-.014.581.581,0,0,1-.434-.7c.041-.179,4.092-18.09-1.995-27.8a.58.58,0,1,1,.984-.616c6.344,10.121,2.316,27.926,2.14,28.68A.578.578,0,0,1,648.172,210.089Z" transform="translate(-645.523 -180.689)"/>
        </g>
        <g id="Group_1137614" data-name="Group 1137614" transform="translate(9.332 7.091)">
          <path id="Path_1563471" data-name="Path 1563471" d="M653.979,210.992a.617.617,0,0,1-.178-.027.582.582,0,0,1-.374-.731c.238-.736,5.935-18.08,16.579-23.5a.58.58,0,1,1,.527,1.033c-10.213,5.2-15.945,22.647-16,22.822A.581.581,0,0,1,653.979,210.992Z" transform="translate(-653.398 -186.672)"/>
        </g>
      </g>
      <g id="Group_1137616" data-name="Group 1137616" transform="translate(650.47 186.178)">
        <path id="Path_1563472" data-name="Path 1563472" d="M671.773,188.952a.589.589,0,0,1-.155-.021,3.409,3.409,0,0,1-2.181-1.993c-.358-.667-.641-1.195-1.468-1.424a2.3,2.3,0,0,0-1.992.467,3.262,3.262,0,0,1-5.079-1.406c-.358-.668-.64-1.195-1.47-1.424a2.292,2.292,0,0,0-1.991.467,3.263,3.263,0,0,1-5.08-1.406c-.358-.668-.641-1.2-1.471-1.426a2.3,2.3,0,0,0-1.993.467,3.407,3.407,0,0,1-2.9.588.58.58,0,1,1,.309-1.118,2.3,2.3,0,0,0,1.993-.467,3.264,3.264,0,0,1,5.082,1.407c.358.667.641,1.195,1.471,1.424a2.291,2.291,0,0,0,1.991-.467,3.262,3.262,0,0,1,5.079,1.406c.358.667.641,1.195,1.47,1.424a2.294,2.294,0,0,0,1.992-.467,3.261,3.261,0,0,1,5.078,1.406c.358.667.64,1.195,1.468,1.424a.58.58,0,0,1-.155,1.139Z" transform="translate(-645.57 -179.547)"/>
      </g>
    </g>
    <path id="Path_1563473" data-name="Path 1563473" d="M396.5,108.768a5.448,5.448,0,1,1,5.448-5.448A5.454,5.454,0,0,1,396.5,108.768Zm0-9.918a4.47,4.47,0,1,0,4.469,4.47A4.475,4.475,0,0,0,396.5,98.85Z" transform="translate(162.754 893.832) rotate(7)" fill="#bdd9fb"/>
  </g>
</svg>
