<svg xmlns="http://www.w3.org/2000/svg" width="59.559" height="57" viewBox="0 0 59.559 57">
  <g id="price-list" transform="translate(0 -11)">
    <g id="Group_1157323" data-name="Group 1157323" transform="translate(8.11 29.674)">
      <path id="Path_1605530" data-name="Path 1605530" d="M105.068,171v20.853h-26.8V171H70v25.487h43.34V171Z" transform="translate(-70 -171)" fill="#55cdf9"/>
    </g>
    <g id="Group_1157324" data-name="Group 1157324" transform="translate(0 11)">
      <path id="Path_1605531" data-name="Path 1605531" d="M58.4,58.694H57.233V28.449A4.658,4.658,0,0,0,52.58,23.8H44.32V12.163A1.163,1.163,0,0,0,43.157,11H16.4a1.163,1.163,0,0,0-1.163,1.163V23.8H6.98a4.658,4.658,0,0,0-4.653,4.653V58.694H1.163A1.163,1.163,0,0,0,0,59.857v3.49A4.658,4.658,0,0,0,4.653,68H54.906a4.658,4.658,0,0,0,4.653-4.653v-3.49A1.163,1.163,0,0,0,58.4,58.694ZM17.565,13.327H41.994V49.388H17.565ZM4.653,28.449A2.329,2.329,0,0,1,6.98,26.122h8.259V49.388H14.076a1.163,1.163,0,1,0,0,2.327H45.484a1.163,1.163,0,1,0,0-2.327H44.32V26.122H52.58a2.329,2.329,0,0,1,2.327,2.327V58.694H4.653Zm52.58,34.9a2.329,2.329,0,0,1-2.327,2.327H4.653a2.329,2.329,0,0,1-2.327-2.327V61.02H57.233Z" transform="translate(0 -11)" fill="#fff"/>
      <path id="Path_1605532" data-name="Path 1605532" d="M224.812,68.949a12.352,12.352,0,0,1-3.148-1.466,1.5,1.5,0,0,1,.737-2.309,2.624,2.624,0,0,1,2.424.39l-.013-.011h0a1.158,1.158,0,0,0,1.6-1.669c-.011-.011-.023-.021-.035-.032h0a4.765,4.765,0,0,0-2.068-1.009v-.682a1.159,1.159,0,0,0-2.317,0v.724q-.131.033-.265.073a3.827,3.827,0,0,0-2.625,3,3.4,3.4,0,0,0,1.126,3.351,13.265,13.265,0,0,0,3.806,1.827,1.729,1.729,0,0,1,1.249,2.029,2.235,2.235,0,0,1-2.218,1.885,3.623,3.623,0,0,1-2.6-.684A1.158,1.158,0,1,0,219.2,76.3a5.508,5.508,0,0,0,2.8,1.029v.6a1.159,1.159,0,1,0,2.317,0v-.737a4.619,4.619,0,0,0,3.259-3.648,4.063,4.063,0,0,0-2.762-4.6Z" transform="translate(-193.221 -55.207)" fill="#fff"/>
      <path id="Path_1605533" data-name="Path 1605533" d="M182.159,243.317h15.061a1.159,1.159,0,1,0,0-2.317H182.159a1.159,1.159,0,0,0,0,2.317Z" transform="translate(-159.909 -214.24)" fill="#fff"/>
      <path id="Path_1605534" data-name="Path 1605534" d="M182.159,293.317h15.061a1.159,1.159,0,1,0,0-2.317H182.159a1.159,1.159,0,0,0,0,2.317Z" transform="translate(-159.909 -258.423)" fill="#fff"/>
    </g>
  </g>
</svg>
