<svg xmlns="http://www.w3.org/2000/svg" width="64.692" height="57.949" viewBox="0 0 64.692 57.949">
  <g id="data-transfer" transform="translate(-4.61 -10.8)">
    <g id="Group_1157328" data-name="Group 1157328" transform="translate(19.426 11.753)">
      <g id="Group_1157326" data-name="Group 1157326" transform="translate(40.06 8.148)">
        <path id="Path_1605568" data-name="Path 1605568" d="M105.367,36.818h8.861l-8.861-9.308Z" transform="translate(-105.367 -27.51)" fill="#c0f0fb"/>
      </g>
      <g id="Group_1157327" data-name="Group 1157327" transform="translate(12.227 0)">
        <path id="Path_1605570" data-name="Path 1605570" d="M54.263,21.858h8.861L54.263,12.55Z" transform="translate(-54.263 -12.55)" fill="#c0f0fb"/>
      </g>
      <path id="Path_1605571" data-name="Path 1605571" d="M73.812,69.016l4.744-3.665-4.744-3.665-4.738-3.66v4.951H57.467V67.73H69.073v4.951Z" transform="translate(-43.495 -33.258)" fill="#c0f0fb"/>
      <path id="Path_1605572" data-name="Path 1605572" d="M36.557,46.725,31.813,50.39l4.744,3.665L41.3,57.721V52.77H52.9V48.016H41.3V43.065Z" transform="translate(-31.813 -26.445)" fill="#55cdf9"/>
    </g>
    <g id="Group_1157329" data-name="Group 1157329" transform="translate(4.61 10.8)">
      <path id="Path_1605573" data-name="Path 1605573" d="M48.126,18.948h-8.31c-.008-.006-7.474-7.855-7.483-7.858a.989.989,0,0,0-.682-.29H8.286A3.681,3.681,0,0,0,4.61,14.476V56.925A3.681,3.681,0,0,0,8.286,60.6h3.725a.953.953,0,1,0,0-1.906H8.286a1.772,1.772,0,0,1-1.77-1.77V14.476a1.772,1.772,0,0,1,1.77-1.77H30.7v8.355a.954.954,0,0,0,.953.953h7.908V32.37h-9.7v-4a.96.96,0,0,0-1.536-.754l-9.482,7.325a.953.953,0,0,0,0,1.508l9.482,7.331a.959.959,0,0,0,1.536-.754v-4h9.7v1.49H33.4a.953.953,0,0,0-.953.953v4.749a.953.953,0,0,0,.953.953h6.16v9.749a1.772,1.772,0,0,1-1.77,1.77H24.7a.953.953,0,1,0,0,1.906h7.745v4.471a3.681,3.681,0,0,0,3.676,3.676h29.5A3.681,3.681,0,0,0,69.3,65.073V29.209a1,1,0,0,0-.285-.679c-9.489-9.956-8.816-9.288-8.98-9.405a.98.98,0,0,0-.55-.176H51.868a.953.953,0,0,0,0,1.906h6.665v8.355a.953.953,0,0,0,.955.953H67.4V65.073a1.772,1.772,0,0,1-1.77,1.77h-29.5a1.772,1.772,0,0,1-1.77-1.77V60.6h3.437a3.681,3.681,0,0,0,3.676-3.676V47.176h2.587v4a.953.953,0,0,0,.533.856.985.985,0,0,0,1-.1L55.07,44.6a.959.959,0,0,0,0-1.508l-9.482-7.325a.953.953,0,0,0-1.536.754v4H41.465c-.019-4.743.041-14.819-.022-19.667h6.683a.953.953,0,0,0,0-1.906ZM32.6,20.108V14.137l5.683,5.971Zm27.836,8.148V22.286l5.683,5.969ZM28.906,37.125a.953.953,0,0,0-.953.953v3.009L20.982,35.7l6.971-5.385v3.01a.953.953,0,0,0,.953.953H39.559v2.848Zm16.1,5.3a.953.953,0,0,0,.953-.953V38.458l6.971,5.385-6.971,5.388V46.223a.953.953,0,0,0-.953-.953H34.353V42.427c2.609,0,8.082,0,10.653,0Z" transform="translate(-4.61 -10.8)" fill="#fff"/>
      <path id="Path_1605574" data-name="Path 1605574" d="M29.48,100.646a.953.953,0,1,0,0-1.906H24.273a.953.953,0,0,0,0,1.906Z" transform="translate(-13.13 -50.845)" fill="#fff"/>
      <path id="Path_1605575" data-name="Path 1605575" d="M102.5,58.18a.953.953,0,0,0,0-1.906H93.56a.953.953,0,0,0,0,1.906Z" transform="translate(-44.681 -31.507)" fill="#fff"/>
      <path id="Path_1605576" data-name="Path 1605576" d="M106.238,71.635a.953.953,0,1,0,0-1.906h-4.47a.953.953,0,0,0,0,1.906Z" transform="translate(-48.418 -37.634)" fill="#fff"/>
      <path id="Path_1605577" data-name="Path 1605577" d="M102.5,85.091a.953.953,0,1,0,0-1.906H93.56a.953.953,0,0,0,0,1.906Z" transform="translate(-44.681 -43.762)" fill="#fff"/>
      <path id="Path_1605578" data-name="Path 1605578" d="M25.371,43.221a.953.953,0,1,0,0-1.906H16.43a.953.953,0,0,0,0,1.906Z" transform="translate(-9.558 -24.695)" fill="#fff"/>
      <path id="Path_1605579" data-name="Path 1605579" d="M20.9,56.677a.953.953,0,0,0,0-1.906H16.43a.953.953,0,0,0,0,1.906Z" transform="translate(-9.558 -30.823)" fill="#fff"/>
      <path id="Path_1605580" data-name="Path 1605580" d="M25.371,70.132a.953.953,0,1,0,0-1.906H16.43a.953.953,0,1,0,0,1.906Z" transform="translate(-9.558 -36.95)" fill="#fff"/>
    </g>
  </g>
</svg>
