<svg xmlns="http://www.w3.org/2000/svg" width="57.746" height="57.56" viewBox="0 0 57.746 57.56">
  <g id="people" transform="translate(-2.692 -3.094)">
    <path id="Path_1605667" data-name="Path 1605667" d="M12.993,0A12.993,12.993,0,1,1,0,12.993,12.993,12.993,0,0,1,12.993,0Z" transform="translate(18.471 18.408)" fill="#55cdf9"/>
    <g id="Group_1157325" data-name="Group 1157325" transform="translate(9.517 8.995)">
      <path id="Path_1605536" data-name="Path 1605536" d="M122.144,31.468c-.886-.293-1.8-.549-2.315-2.762-.473,2.039-1.232,2.4-2.315,2.762a3.075,3.075,0,0,1,2.315,2.762C120.313,32.143,121.114,31.809,122.144,31.468Z" transform="translate(-97.881 -28.706)" fill="#55cdf9"/>
      <path id="Path_1605537" data-name="Path 1605537" d="M122.144,201.968c-.886-.293-1.8-.549-2.315-2.762-.473,2.039-1.232,2.4-2.315,2.762a3.075,3.075,0,0,1,2.315,2.762C120.313,202.643,121.114,202.309,122.144,201.968Z" transform="translate(-97.881 -159.92)" fill="#55cdf9"/>
      <path id="Path_1605538" data-name="Path 1605538" d="M36.943,116.831c-.886-.293-1.8-.549-2.315-2.762-.473,2.039-1.232,2.4-2.315,2.762a3.075,3.075,0,0,1,2.315,2.762C35.112,117.506,35.913,117.172,36.943,116.831Z" transform="translate(-32.312 -94.4)" fill="#55cdf9"/>
      <path id="Path_1605539" data-name="Path 1605539" d="M207.433,118.555c-.886-.293-1.8-.549-2.315-2.762-.473,2.039-1.232,2.4-2.315,2.762a3.075,3.075,0,0,1,2.315,2.762C205.6,119.23,206.4,118.9,207.433,118.555Z" transform="translate(-163.518 -95.727)" fill="#55cdf9"/>
    </g>
    <path id="Path_1605540" data-name="Path 1605540" d="M108.238,98.358A8.259,8.259,0,1,1,99.979,90.1,8.238,8.238,0,0,1,108.238,98.358Z" transform="translate(-68.515 -66.955)" fill="#002033"/>
    <circle id="Ellipse_53999" data-name="Ellipse 53999" cx="2.689" cy="2.689" r="2.689" transform="translate(28.775 27.669)" fill="#55cdf9"/>
    <path id="Path_1605541" data-name="Path 1605541" d="M115.312,137.336v.5a8.255,8.255,0,0,1-10.471,0v-.5a4.245,4.245,0,0,1,4.246-4.246h1.979A4.245,4.245,0,0,1,115.312,137.336Z" transform="translate(-78.612 -100.043)" fill="#55cdf9"/>
    <path id="Path_1605542" data-name="Path 1605542" d="M110.976,141.713a.576.576,0,0,1-.467-.668,2.975,2.975,0,0,1,2.933-2.458.576.576,0,0,1,0,1.152,1.824,1.824,0,0,0-1.8,1.507A.575.575,0,0,1,110.976,141.713Z" transform="translate(-82.967 -104.274)" fill="#c5e5ff"/>
    <circle id="Ellipse_54000" data-name="Ellipse 54000" cx="2.689" cy="2.689" r="2.689" transform="translate(9.129 6.225)" fill="#55cdf9"/>
    <path id="Path_1605544" data-name="Path 1605544" d="M30.053,44.275v3.131a8.553,8.553,0,0,1-10.47,0V44.275a4.243,4.243,0,0,1,4.244-4.247h1.979A4.245,4.245,0,0,1,30.053,44.275Z" transform="translate(-12.999 -28.424)" fill="#55cdf9"/>
    <path id="Path_1605545" data-name="Path 1605545" d="M26.659,51.881a.576.576,0,0,1-.576-.576V49.277a2.751,2.751,0,0,1,2.747-2.749.576.576,0,0,1,0,1.152,1.6,1.6,0,0,0-1.594,1.6V51.3A.576.576,0,0,1,26.659,51.881Z" transform="translate(-18.001 -33.426)" fill="#c5e5ff"/>
    <circle id="Ellipse_54001" data-name="Ellipse 54001" cx="2.689" cy="2.689" r="2.689" transform="translate(48.622 6.225)" fill="#55cdf9"/>
    <path id="Path_1605547" data-name="Path 1605547" d="M190.977,44.275v3.131a8.553,8.553,0,0,0,10.47,0V44.275a4.243,4.243,0,0,0-4.244-4.247h-1.979A4.245,4.245,0,0,0,190.977,44.275Z" transform="translate(-144.901 -28.424)" fill="#55cdf9"/>
    <circle id="Ellipse_54002" data-name="Ellipse 54002" cx="2.689" cy="2.689" r="2.689" transform="translate(9.129 45.53)" fill="#55cdf9"/>
    <path id="Path_1605549" data-name="Path 1605549" d="M30.053,214.859v3.131a8.553,8.553,0,0,1-10.47,0v-3.134a4.243,4.243,0,0,1,4.244-4.247h1.979A4.245,4.245,0,0,1,30.053,214.859Z" transform="translate(-12.999 -159.703)" fill="#55cdf9"/>
    <circle id="Ellipse_54003" data-name="Ellipse 54003" cx="2.689" cy="2.689" r="2.689" transform="translate(48.622 45.53)" fill="#55cdf9"/>
    <path id="Path_1605551" data-name="Path 1605551" d="M190.977,214.859v3.131a8.553,8.553,0,0,0,10.47,0v-3.134a4.243,4.243,0,0,0-4.244-4.247h-1.979A4.245,4.245,0,0,0,190.977,214.859Z" transform="translate(-144.901 -159.703)" fill="#55cdf9"/>
    <path id="Path_1605552" data-name="Path 1605552" d="M198.3,51.881a.576.576,0,0,1-.576-.576V49.277a2.751,2.751,0,0,1,2.747-2.749.576.576,0,1,1,0,1.152,1.6,1.6,0,0,0-1.594,1.6V51.3A.576.576,0,0,1,198.3,51.881Z" transform="translate(-150.094 -33.426)" fill="#c5e5ff"/>
    <path id="Path_1605553" data-name="Path 1605553" d="M26.659,224.244a.576.576,0,0,1-.576-.576V221.64a2.751,2.751,0,0,1,2.747-2.749.576.576,0,0,1,0,1.152,1.6,1.6,0,0,0-1.594,1.6v2.028a.576.576,0,0,1-.576.576Z" transform="translate(-18.001 -166.074)" fill="#c5e5ff"/>
    <path id="Path_1605554" data-name="Path 1605554" d="M198.3,224.244a.576.576,0,0,1-.576-.576V221.64a2.751,2.751,0,0,1,2.747-2.749.576.576,0,1,1,0,1.152,1.6,1.6,0,0,0-1.594,1.6v2.028a.576.576,0,0,1-.576.576Z" transform="translate(-150.094 -166.074)" fill="#c5e5ff"/>
    <path id="Path_1605555" data-name="Path 1605555" d="M117.266,26.59c-.427,1.838-1.022,2.034-1.922,2.332a.6.6,0,0,0,0,1.13c1.5.494,1.666,1.225,1.922,2.332a.6.6,0,0,0,1.159,0c.426-1.838,1.054-2.045,1.922-2.332a.6.6,0,0,0,0-1.13c-.834-.275-1.486-.453-1.922-2.332A.6.6,0,0,0,117.266,26.59Zm.582,1.873a3.033,3.033,0,0,0,.89,1.029,2.945,2.945,0,0,0-.88.993,3.09,3.09,0,0,0-.932-.985A2.946,2.946,0,0,0,117.848,28.463Z" transform="translate(-86.382 -17.729)" fill="#fff"/>
    <path id="Path_1605556" data-name="Path 1605556" d="M115.344,199.423a.6.6,0,0,0,0,1.13c1.5.494,1.666,1.225,1.922,2.332a.6.6,0,0,0,1.159,0c.426-1.838,1.054-2.045,1.922-2.332a.6.6,0,0,0,0-1.13c-.834-.275-1.486-.453-1.922-2.332a.6.6,0,0,0-1.159,0C116.839,198.928,116.245,199.125,115.344,199.423Zm2.5-.459a3.036,3.036,0,0,0,.89,1.03,2.945,2.945,0,0,0-.88.993,3.09,3.09,0,0,0-.932-.985A2.949,2.949,0,0,0,117.848,198.963Z" transform="translate(-86.382 -148.944)" fill="#fff"/>
    <path id="Path_1605557" data-name="Path 1605557" d="M32.065,117.747a.6.6,0,0,0,1.159,0c.426-1.838,1.054-2.045,1.922-2.332a.6.6,0,0,0,0-1.13c-.834-.275-1.486-.453-1.922-2.332a.6.6,0,0,0-1.159,0c-.427,1.838-1.022,2.034-1.922,2.332a.6.6,0,0,0,0,1.13c1.5.494,1.665,1.225,1.922,2.332Zm.582-3.921a3.033,3.033,0,0,0,.89,1.029,2.945,2.945,0,0,0-.88.993,3.09,3.09,0,0,0-.932-.985A2.946,2.946,0,0,0,32.647,113.826Z" transform="translate(-20.812 -83.423)" fill="#fff"/>
    <path id="Path_1605558" data-name="Path 1605558" d="M203.714,113.674a.6.6,0,0,0-1.159,0c-.427,1.838-1.022,2.034-1.922,2.332a.6.6,0,0,0,0,1.13c1.5.494,1.666,1.225,1.922,2.332a.6.6,0,0,0,1.159,0c.426-1.838,1.054-2.045,1.922-2.332a.6.6,0,0,0,0-1.13C204.8,115.731,204.151,115.553,203.714,113.674Zm-.568,3.9a3.09,3.09,0,0,0-.932-.985,2.951,2.951,0,0,0,.922-1.038,3.033,3.033,0,0,0,.89,1.029A2.941,2.941,0,0,0,203.147,117.57Z" transform="translate(-152.019 -84.747)" fill="#fff"/>
    <path id="Path_1605559" data-name="Path 1605559" d="M126.839,180.4a.576.576,0,1,0,.558-.594A.573.573,0,0,0,126.839,180.4Z" transform="translate(-95.541 -135.996)" fill="#fff"/>
    <path id="Path_1605560" data-name="Path 1605560" d="M146.774,95.8h0a.575.575,0,0,0,.689-.922.588.588,0,0,0-.806.115A.579.579,0,0,0,146.774,95.8Z" transform="translate(-110.707 -70.551)" fill="#fff"/>
    <path id="Path_1605561" data-name="Path 1605561" d="M98.054,88.75a7.722,7.722,0,0,1,2.735.5.586.586,0,0,0,.742-.334.573.573,0,0,0-.332-.742,8.779,8.779,0,0,0-3.141-.576h0a8.838,8.838,0,1,0,7.037,3.493.587.587,0,0,0-.806-.111.577.577,0,0,0-.111.806,7.68,7.68,0,0,1-.378,9.751,4.831,4.831,0,0,0-3.429-3.846,3.265,3.265,0,1,0-4.625,0,4.83,4.83,0,0,0-3.429,3.846,7.685,7.685,0,0,1,5.74-12.79Zm0,4.529a2.113,2.113,0,1,1-2.113,2.113A2.116,2.116,0,0,1,98.055,93.279Zm-.989,5.378h1.979a3.675,3.675,0,0,1,3.67,3.67v.216l-.015.012a7.711,7.711,0,0,1-4.633,1.565h-.022A7.711,7.711,0,0,1,93.4,102.55l-.007-.005v-.217a3.674,3.674,0,0,1,3.67-3.67Z" transform="translate(-66.591 -65.034)" fill="#fff"/>
    <path id="Path_1605562" data-name="Path 1605562" d="M9.966,8.554a.576.576,0,0,0-.576.576V9.8H8.722a.576.576,0,0,0,0,1.152H9.39v.668a.576.576,0,1,0,1.152,0V10.95h.668a.576.576,0,1,0,0-1.152h-.668V9.13A.576.576,0,0,0,9.966,8.554Z" transform="translate(-4.197 -4.202)" fill="#fff"/>
    <path id="Path_1605563" data-name="Path 1605563" d="M233.878,8.554a.576.576,0,0,0-.576.576V9.8h-.668a.576.576,0,0,0,0,1.152h.668v.668a.576.576,0,1,0,1.152,0V10.95h.668a.576.576,0,0,0,0-1.152h-.668V9.13A.576.576,0,0,0,233.878,8.554Z" transform="translate(-176.516 -4.202)" fill="#fff"/>
    <path id="Path_1605564" data-name="Path 1605564" d="M9.966,179.138a.576.576,0,0,0-.576.576v.668H8.722a.576.576,0,0,0,0,1.152H9.39v.668a.576.576,0,0,0,1.152,0v-.668h.668a.576.576,0,0,0,0-1.152h-.668v-.668A.576.576,0,0,0,9.966,179.138Z" transform="translate(-4.197 -135.481)" fill="#fff"/>
    <path id="Path_1605565" data-name="Path 1605565" d="M3.526,47.712a9.126,9.126,0,0,0,8.292,12.942,9.119,9.119,0,0,0,6.875-15.119l3.8-3.95a13.554,13.554,0,0,0,7,3.244.576.576,0,0,0,.166-1.141,12.417,12.417,0,0,1,1.8-24.7,12.419,12.419,0,0,1,2.576,24.567.577.577,0,0,0-.447.682.586.586,0,0,0,.684.445,13.581,13.581,0,0,0,6.153-3.1l3.912,4.061A9.122,9.122,0,1,0,59.6,47.711a.576.576,0,0,0-1.046.483,7.98,7.98,0,0,1-1.435,8.794V55.156a4.828,4.828,0,0,0-3.5-4.634,3.265,3.265,0,1,0-4.625,0,4.828,4.828,0,0,0-3.5,4.634v1.831a7.975,7.975,0,0,1,9.371-12.6.576.576,0,1,0,.516-1.03,9.118,9.118,0,0,0-10.248,1.45l-3.877-4.025a13.557,13.557,0,0,0,0-18.766l3.4-3.547A9.127,9.127,0,0,0,59.6,8.406a.576.576,0,0,0-1.046.483,7.98,7.98,0,0,1-1.435,8.794V15.85a4.828,4.828,0,0,0-3.5-4.634,3.265,3.265,0,1,0-4.625,0,4.828,4.828,0,0,0-3.5,4.634v1.831a7.975,7.975,0,0,1,9.371-12.6.576.576,0,1,0,.516-1.03,9.02,9.02,0,0,0-4.076-.96,9.127,9.127,0,0,0-7.389,14.483l-3.492,3.643a13.556,13.556,0,0,0-17.93,0L19.121,17.7a9.128,9.128,0,0,0-7.3-14.6,9.017,9.017,0,0,0-4.076.96.576.576,0,0,0,.516,1.03,7.877,7.877,0,0,1,3.56-.838A7.974,7.974,0,0,1,17.63,17.683V15.851a4.828,4.828,0,0,0-3.5-4.634,3.265,3.265,0,1,0-4.625,0,4.828,4.828,0,0,0-3.5,4.634v1.832A7.98,7.98,0,0,1,4.572,8.89a.576.576,0,1,0-1.046-.483A9.128,9.128,0,0,0,18.368,18.579l3.3,3.44a13.56,13.56,0,0,0,0,18.769l-3.78,3.928A9.116,9.116,0,0,0,7.743,43.36a.576.576,0,0,0,.516,1.03,7.877,7.877,0,0,1,3.56-.838A7.974,7.974,0,0,1,17.63,56.988V55.156a4.828,4.828,0,0,0-3.5-4.634,3.265,3.265,0,1,0-4.625,0,4.828,4.828,0,0,0-3.5,4.634v1.832A7.98,7.98,0,0,1,4.572,48.2a.576.576,0,0,0-1.046-.483Zm47.785-1.606A2.113,2.113,0,1,1,49.2,48.219,2.116,2.116,0,0,1,51.311,46.106Zm-.989,5.379H52.3a3.674,3.674,0,0,1,3.668,3.671V58a7.972,7.972,0,0,1-9.318,0V55.156A3.675,3.675,0,0,1,50.322,51.485ZM51.311,6.8A2.113,2.113,0,1,1,49.2,8.914,2.116,2.116,0,0,1,51.311,6.8Zm-.989,5.379H52.3a3.674,3.674,0,0,1,3.668,3.671v2.844l-.015.011a7.973,7.973,0,0,1-9.288,0l-.015-.011V15.851A3.675,3.675,0,0,1,50.322,12.18ZM11.819,6.8A2.113,2.113,0,1,1,9.705,8.914,2.116,2.116,0,0,1,11.819,6.8ZM7.16,18.695V15.851a3.674,3.674,0,0,1,3.668-3.671h1.979a3.675,3.675,0,0,1,3.671,3.671v2.841l-.015.011a7.973,7.973,0,0,1-9.3-.008Zm4.659,27.411a2.113,2.113,0,1,1-2.113,2.113A2.116,2.116,0,0,1,11.819,46.106Zm-.991,5.379h1.979a3.675,3.675,0,0,1,3.671,3.671V58l-.015.011a7.973,7.973,0,0,1-9.288,0L7.16,58V55.156a3.674,3.674,0,0,1,3.668-3.671Z" fill="#fff"/>
    <path id="Path_1605566" data-name="Path 1605566" d="M233.878,182.778a.576.576,0,0,0,.576-.576v-.668h.668a.576.576,0,0,0,0-1.152h-.668v-.668a.576.576,0,0,0-1.152,0v.668h-.668a.576.576,0,0,0,0,1.152h.668v.668A.576.576,0,0,0,233.878,182.778Z" transform="translate(-176.516 -135.481)" fill="#fff"/>
  </g>
</svg>
