<svg xmlns="http://www.w3.org/2000/svg" width="56.98" height="56.72" viewBox="0 0 56.98 56.72">
  <g id="settings_1_" data-name="settings (1)" transform="translate(0 -1.166)">
    <path id="Path_1563533" data-name="Path 1563533" d="M210.165,218.079c-2.324-2.141-4.741.275-4.95.464l-9.928,8.232a3,3,0,0,0-3.123-2.829c-8.307,0-9.288-.143-11.1.548h0l-6.676,2.78,5.033,13.356c5.037-2.1,3.343-1.886,12.817-1.886a7.9,7.9,0,0,0,5.566-2.618l12.207-13.116C210.395,222.567,212.251,220.128,210.165,218.079Z" transform="translate(-154.978 -191.991)" fill="#ffcdbf"/>
    <path id="Path_1563534" data-name="Path 1563534" d="M176.671,299.179l-2.285.951,5.033,13.356c.965-.4,1.682-.718,2.279-.968Z" transform="translate(-154.979 -264.847)" fill="#ffbeab"/>
    <path id="Path_1563535" data-name="Path 1563535" d="M282.211,108.194h-1.393a.1.1,0,0,1-.1-.079,6.324,6.324,0,0,0-.922-2.224.1.1,0,0,1,.012-.124l.985-.985a.485.485,0,0,0,0-.686l-1.008-1.008a.485.485,0,0,0-.686,0l-.985.985a.1.1,0,0,1-.124.012,6.321,6.321,0,0,0-2.224-.922.1.1,0,0,1-.079-.1v-1.393a.485.485,0,0,0-.485-.485h-1.426a.485.485,0,0,0-.485.485v1.393a.1.1,0,0,1-.079.1,6.323,6.323,0,0,0-2.224.922.1.1,0,0,1-.124-.012l-.985-.985a.485.485,0,0,0-.686,0l-1.008,1.008a.485.485,0,0,0,0,.686l.985.985a.1.1,0,0,1,.012.124,6.321,6.321,0,0,0-.922,2.224.1.1,0,0,1-.1.079h-1.393a.485.485,0,0,0-.485.485V110.1a.485.485,0,0,0,.485.485h1.393a.1.1,0,0,1,.1.079,6.323,6.323,0,0,0,.922,2.224.1.1,0,0,1-.012.124l-.985.985a.485.485,0,0,0,0,.686L269.2,115.7a.485.485,0,0,0,.686,0l.985-.985a.1.1,0,0,1,.124-.012,6.321,6.321,0,0,0,2.224.922.1.1,0,0,1,.079.1v1.393a.485.485,0,0,0,.485.485H275.2a.485.485,0,0,0,.485-.485v-1.393a.1.1,0,0,1,.079-.1,6.322,6.322,0,0,0,2.224-.922.1.1,0,0,1,.124.012l.985.985a.485.485,0,0,0,.686,0l1.008-1.008a.485.485,0,0,0,0-.686l-.985-.985a.1.1,0,0,1-.012-.124,6.322,6.322,0,0,0,.922-2.224.1.1,0,0,1,.1-.079h1.393a.485.485,0,0,0,.485-.485v-1.426A.485.485,0,0,0,282.211,108.194ZM274.5,112.46a3.068,3.068,0,1,1,3.068-3.068A3.068,3.068,0,0,1,274.5,112.46Z" transform="translate(-236.653 -88.891)" fill="#72c1e8"/>
    <path id="Path_1563536" data-name="Path 1563536" d="M275.688,103.065v-1.393a.485.485,0,0,0-.485-.485h-1.426a.485.485,0,0,0-.485.485v1.393a.1.1,0,0,1-.079.1,6.323,6.323,0,0,0-2.224.922.1.1,0,0,1-.124-.012l-.985-.985a.485.485,0,0,0-.686,0l-1.008,1.008a.485.485,0,0,0,0,.686l.985.985a.1.1,0,0,1,.012.124,6.32,6.32,0,0,0-.922,2.224.1.1,0,0,1-.1.079h-1.393a.485.485,0,0,0-.485.485V110.1a.485.485,0,0,0,.485.485h1.393a.1.1,0,0,1,.1.079,6.323,6.323,0,0,0,.922,2.224.1.1,0,0,1-.012.124l-.985.985a.484.484,0,0,0-.13.448,2.954,2.954,0,0,0,3.68-.394l1.5-1.5a2.961,2.961,0,0,0,.238-.27,3.068,3.068,0,1,1,2.068-5.777,2.946,2.946,0,0,0,1.174-2.353v-.719a6.323,6.323,0,0,0-.949-.274A.1.1,0,0,1,275.688,103.065Z" transform="translate(-236.651 -88.89)" fill="#53b7e8"/>
    <path id="Path_1563537" data-name="Path 1563537" d="M144.17,18.967H142.1a.147.147,0,0,1-.143-.118,9.412,9.412,0,0,0-1.372-3.312.147.147,0,0,1,.018-.185l1.467-1.467a.723.723,0,0,0,0-1.022l-1.5-1.5a.723.723,0,0,0-1.022,0l-1.467,1.467a.147.147,0,0,1-.185.018,9.413,9.413,0,0,0-3.312-1.372.147.147,0,0,1-.118-.143V9.256a.722.722,0,0,0-.722-.722h-2.123a.722.722,0,0,0-.722.722v2.074a.147.147,0,0,1-.118.143,9.412,9.412,0,0,0-3.312,1.372.146.146,0,0,1-.185-.018l-1.467-1.467a.722.722,0,0,0-1.022,0l-1.5,1.5a.723.723,0,0,0,0,1.022l1.467,1.467a.147.147,0,0,1,.018.185,9.413,9.413,0,0,0-1.372,3.312.146.146,0,0,1-.143.118h-2.074a.722.722,0,0,0-.722.722v2.123a.722.722,0,0,0,.722.722h2.074a.147.147,0,0,1,.143.118,9.412,9.412,0,0,0,1.372,3.312.147.147,0,0,1-.018.185l-1.467,1.467a.723.723,0,0,0,0,1.022l1.5,1.5a.722.722,0,0,0,1.022,0l1.467-1.467a.147.147,0,0,1,.185-.018,9.413,9.413,0,0,0,3.312,1.372.146.146,0,0,1,.118.143v2.074a.722.722,0,0,0,.722.722h2.123a.722.722,0,0,0,.722-.722V30.17a.147.147,0,0,1,.118-.143,9.414,9.414,0,0,0,3.312-1.372.146.146,0,0,1,.185.018l1.467,1.467a.723.723,0,0,0,1.022,0l1.5-1.5a.723.723,0,0,0,0-1.022L140.6,26.15a.147.147,0,0,1-.018-.185,9.413,9.413,0,0,0,1.372-3.312.147.147,0,0,1,.143-.118h2.074a.722.722,0,0,0,.722-.722V19.689A.722.722,0,0,0,144.17,18.967Z" transform="translate(-107.053 -6.548)" fill="#e4eaf8"/>
    <circle id="Ellipse_53981" data-name="Ellipse 53981" cx="5.866" cy="5.866" r="5.866" transform="translate(19.767 8.337)" fill="#72c1e8"/>
    <path id="Path_1563538" data-name="Path 1563538" d="M125.511,49.527a.723.723,0,0,1,0-1.022l1.467-1.467a.147.147,0,0,0,.018-.185,9.413,9.413,0,0,1-1.372-3.312.146.146,0,0,0-.143-.118h-2.074a.722.722,0,0,1-.722-.722V40.578a.722.722,0,0,1,.722-.722h2.074a.147.147,0,0,0,.143-.118A9.414,9.414,0,0,1,127,36.425a.147.147,0,0,0-.018-.185l-1.467-1.467a.723.723,0,0,1,0-1.022l.9-.9-.6-.6a.722.722,0,0,0-1.022,0l-1.5,1.5a.723.723,0,0,0,0,1.022l1.467,1.467a.147.147,0,0,1,.018.185,9.413,9.413,0,0,0-1.372,3.312.146.146,0,0,1-.143.118h-2.074a.722.722,0,0,0-.722.722V42.7a.722.722,0,0,0,.722.722h2.074a.147.147,0,0,1,.143.118,9.411,9.411,0,0,0,1.372,3.312.147.147,0,0,1-.018.185l-1.467,1.467a.723.723,0,0,0,0,1.022l1.5,1.5a.722.722,0,0,0,1.022,0l.6-.6Z" transform="translate(-107.051 -27.437)" fill="#d8dce5"/>
    <path id="Path_1563539" data-name="Path 1563539" d="M179.844,71.461A5.867,5.867,0,0,1,184.6,65.7a5.866,5.866,0,1,0,0,11.519A5.867,5.867,0,0,1,179.844,71.461Z" transform="translate(-157.851 -57.259)" fill="#53b7e8"/>
    <path id="Path_1563540" data-name="Path 1563540" d="M20.147,307.359h0L8.353,311.8a1.184,1.184,0,0,0-.691,1.525l5.674,15.057a1.184,1.184,0,0,0,1.526.691l11.794-4.445Z" transform="translate(-6.742 -272.117)" fill="#72c1e8"/>
    <path id="Path_1563541" data-name="Path 1563541" d="M54.813,445.278a1.244,1.244,0,0,1-.721.048l.575,1.526a1.184,1.184,0,0,0,1.526.691L67.987,443.1l-.919-2.438Z" transform="translate(-48.072 -390.583)" fill="#53b7e8"/>
    <g id="Group_1137634" data-name="Group 1137634" transform="translate(23.634 1.986)">
      <path id="Path_1563542" data-name="Path 1563542" d="M215.485,9.256a.722.722,0,0,1,.671-.72l-.052,0h-2.123a.722.722,0,0,0-.722.722v2.074a.147.147,0,0,1-.118.143,15.319,15.319,0,0,1,2-.141.347.347,0,0,0,.343-.347V9.256Z" transform="translate(-213.055 -8.534)" fill="#d8dce5"/>
      <path id="Path_1563543" data-name="Path 1563543" d="M214.8,203.729v-1.67a.409.409,0,0,0-.4-.408,13.921,13.921,0,0,1-2.029-.159l.087.019a.146.146,0,0,1,.116.143v2.074a.722.722,0,0,0,.722.722h2.123l.052,0A.722.722,0,0,1,214.8,203.729Z" transform="translate(-212.37 -180.018)" fill="#d8dce5"/>
    </g>
    <path id="Path_1563544" data-name="Path 1563544" d="M124.953,291.6l-4.5,1.694,6.509,17.274,4.5-1.694a1.044,1.044,0,0,0,.609-1.346L126.3,292.206A1.044,1.044,0,0,0,124.953,291.6Z" transform="translate(-107.051 -258.05)" fill="#e4eaf8"/>
    <path id="Path_1563545" data-name="Path 1563545" d="M176.716,422.356l-.609-1.616a1.1,1.1,0,0,1-.483.358l-4.743,1.788h0l-.189.071.919,2.439,4.5-1.694A1.045,1.045,0,0,0,176.716,422.356Z" transform="translate(-151.696 -372.88)" fill="#d8dce5"/>
    <path id="Path_1563546" data-name="Path 1563546" d="M207.184,98.366l-2.687,2.619-1.074-1.052a.835.835,0,1,0-1.169,1.192l1.656,1.623a.835.835,0,0,0,1.167,0l3.271-3.188a.835.835,0,1,0-1.165-1.2Z" transform="translate(-179.523 -86.173)"/>
    <path id="Path_1563547" data-name="Path 1563547" d="M145.866,22.549a1.321,1.321,0,0,0,1.32-1.32V19.8a1.321,1.321,0,0,0-1.32-1.32h-.817a7.111,7.111,0,0,0-.584-1.41l.578-.578a1.319,1.319,0,0,0,0-1.867l-1.008-1.008a1.322,1.322,0,0,0-1.867,0l-.578.578a7.106,7.106,0,0,0-1.41-.584V12.8a1.321,1.321,0,0,0-1.32-1.32h-1.426a1.309,1.309,0,0,0-.548.121h-.99a10.185,10.185,0,0,0-1.068-2.577l1.081-1.081a1.556,1.556,0,0,0,0-2.2l-1.5-1.5a1.559,1.559,0,0,0-2.2,0l-1.081,1.081a10.19,10.19,0,0,0-2.577-1.068V2.723a1.559,1.559,0,0,0-1.557-1.557h-2.123a1.559,1.559,0,0,0-1.557,1.557V4.251a10.187,10.187,0,0,0-2.577,1.068l-1.081-1.081a1.559,1.559,0,0,0-2.2,0l-1.5,1.5a1.559,1.559,0,0,0,0,2.2l1.081,1.081a10.193,10.193,0,0,0-1.068,2.577h-1.528a1.559,1.559,0,0,0-1.557,1.557v2.123a1.559,1.559,0,0,0,1.557,1.557h1.528a10.188,10.188,0,0,0,1.068,2.577l-1.081,1.081a1.559,1.559,0,0,0,0,2.2l1.5,1.5a1.556,1.556,0,0,0,2.2,0l1.08-1.081a10.19,10.19,0,0,0,2.577,1.068v1.528a1.559,1.559,0,0,0,1.557,1.557h2.123a1.559,1.559,0,0,0,1.557-1.557V24.184a10.186,10.186,0,0,0,2.577-1.068l.56.56c.046.095.094.189.144.281l-.579.579a1.32,1.32,0,0,0,0,1.867l1.008,1.008a1.319,1.319,0,0,0,1.867,0l.578-.578a7.1,7.1,0,0,0,1.41.584v.817a1.321,1.321,0,0,0,1.32,1.32h1.426a1.321,1.321,0,0,0,1.32-1.32v-.817a7.113,7.113,0,0,0,1.41-.584l.578.578a1.321,1.321,0,0,0,1.867,0l1.008-1.008a1.319,1.319,0,0,0,0-1.867l-.578-.578a7.108,7.108,0,0,0,.584-1.41ZM135.9,16.836h.966a3.906,3.906,0,0,0-1.16.652C135.74,17.377,135.83,17.089,135.9,16.836Zm.032,3.679a2.233,2.233,0,1,1,.418,1.3A1.554,1.554,0,0,0,135.929,20.515Zm-5.245.91a8.548,8.548,0,0,1-3.019,1.251.985.985,0,0,0-.786.961V25.6h-1.9V23.637a.985.985,0,0,0-.786-.961,8.546,8.546,0,0,1-3.019-1.251.986.986,0,0,0-1.236.124l-1.388,1.388-1.342-1.342,1.388-1.388a.986.986,0,0,0,.124-1.235,8.547,8.547,0,0,1-1.251-3.019.985.985,0,0,0-.961-.786h-1.962v-1.9h1.962a.985.985,0,0,0,.961-.786,8.547,8.547,0,0,1,1.25-3.018.985.985,0,0,0-.124-1.236L117.21,6.84,118.553,5.5l1.388,1.388a.985.985,0,0,0,1.236.124,8.543,8.543,0,0,1,3.02-1.251.985.985,0,0,0,.785-.961V2.836h1.9V4.8a.985.985,0,0,0,.786.961,8.549,8.549,0,0,1,3.018,1.25.984.984,0,0,0,1.236-.124L133.307,5.5l1.342,1.342-1.387,1.387a.984.984,0,0,0-.125,1.236,8.543,8.543,0,0,1,1.251,3.02.985.985,0,0,0,.961.785h1.962v1.9H135.35a.985.985,0,0,0-.961.786,8.549,8.549,0,0,1-1.251,3.019.985.985,0,0,0,.124,1.236l1.264,1.264.123.123-1.342,1.342-1.387-1.387A.984.984,0,0,0,130.684,21.425Zm12.874.2a5.473,5.473,0,0,1-.8,1.932.936.936,0,0,0,.119,1.174l.738.738-.514.514-.738-.738a.938.938,0,0,0-1.175-.118,5.464,5.464,0,0,1-1.932.8.937.937,0,0,0-.746.914v1.044h-.726V26.842a.937.937,0,0,0-.747-.914,5.472,5.472,0,0,1-1.932-.8.938.938,0,0,0-1.174.119l-.738.738-.514-.514c.068-.068.76-.753.818-.83a1.577,1.577,0,0,0,.911-.444l.957-.957a3.9,3.9,0,1,0,2.859-6.625,1.561,1.561,0,0,0,.757-1.335V15a8.006,8.006,0,0,1,2.207.9.937.937,0,0,0,1.174-.119l.738-.738.514.514-.738.738a.937.937,0,0,0-.118,1.175,5.464,5.464,0,0,1,.8,1.93.936.936,0,0,0,.914.748h1.043v.726h-1.044A.936.936,0,0,0,143.558,21.627Z" transform="translate(-100.317)"/>
    <path id="Path_1563548" data-name="Path 1563548" d="M182.511,66.264a.835.835,0,0,0-1.08.477,5.031,5.031,0,1,1-4.693-6.847,5.013,5.013,0,0,1,4.8,3.505.835.835,0,0,0,1.591-.506,6.7,6.7,0,1,0-6.386,8.733,6.745,6.745,0,0,0,6.25-4.283A.835.835,0,0,0,182.511,66.264Z" transform="translate(-151.114 -50.709)"/>
    <path id="Path_1563549" data-name="Path 1563549" d="M49.687,211.531l-8.916,7.394a3.688,3.688,0,0,0-3.594-2.189c-8.31,0-9.424-.149-11.4.6l-.022.009-5.657,2.34-.079-.209a1.878,1.878,0,0,0-2.422-1.1l-16.29,6.138a2.017,2.017,0,0,0-1.178,2.6L5.8,242.18a2.018,2.018,0,0,0,2.6,1.178l16.29-6.139a1.878,1.878,0,0,0,1.1-2.421l-.074-.2c2.939-1.248,3.014-1.4,5.961-1.414a.835.835,0,0,0-.005-1.67h-.005c-3.214.02-3.572.259-6.54,1.52l-4.442-11.788,5.7-2.355c1.643-.623,2.624-.49,10.795-.49a2.063,2.063,0,0,1,1.929.954,2.725,2.725,0,0,1,.357,1.051,2.2,2.2,0,0,1-1.717,2.1c-2.287.388-7.22,1.095-7.269,1.1a.835.835,0,0,0,.236,1.653c.05-.007,5-.717,7.312-1.108a3.792,3.792,0,0,0,3.071-3.338l9.664-8.013.029-.025.038-.035c.961-.9,2.395-1.7,3.775-.442,1.561,1.547.127,3.388-.2,3.768L42.186,229.2a7.12,7.12,0,0,1-4.957,2.332c-.6,0-1.145,0-1.655,0a.835.835,0,1,0-.006,1.67c.771,0,4.923.475,7.868-2.891l12.208-13.117.009-.01C59.5,212.77,54.209,207.3,49.687,211.531ZM7.817,241.8a.349.349,0,0,1-.45-.2L1.693,226.534a.349.349,0,0,1,.2-.45l11.013-4.15,5.921,15.711Zm16.29-6.139-3.714,1.4-5.92-15.711,3.714-1.4h0a.209.209,0,0,1,.27.122l5.773,15.319A.209.209,0,0,1,24.107,235.656Z" transform="translate(0 -185.602)"/>
  </g>
</svg>
