<svg xmlns="http://www.w3.org/2000/svg" width="57.322" height="57.37" viewBox="0 0 57.322 57.37">
  <g id="web-development" transform="translate(-0.001)">
    <path id="Path_1563550" data-name="Path 1563550" d="M283.513,44.789H262.432a3.175,3.175,0,0,0-3.175,3.175V59.889a3.175,3.175,0,0,0,3.175,3.175h7.5l-1.212,4.892a.694.694,0,0,0,1.1.717l7.3-5.609h6.4a3.175,3.175,0,0,0,3.175-3.175V47.964a3.176,3.176,0,0,0-3.176-3.175Zm0,0" transform="translate(-230.206 -39.77)" fill="#88dbfd"/>
    <path id="Path_1563551" data-name="Path 1563551" d="M344.467,208.991l-.937,3.784a.694.694,0,0,0,1.1.717l7.3-5.609h-6.019Zm0,0" transform="translate(-305.016 -184.589)" fill="#5abfe9"/>
    <path id="Path_1563553" data-name="Path 1563553" d="M51.781,251.265a7.214,7.214,0,0,0-4.414-6.082c-3.116-1.459-11.6-3.666-11.6-3.666a1.731,1.731,0,0,1-1.415-1.7v-4.851H25.125v4.851a1.731,1.731,0,0,1-1.415,1.7s-8.486,2.207-11.6,3.666a7.214,7.214,0,0,0-4.414,6.082L7.5,262.829a2.309,2.309,0,0,0,2.308,2.336H49.664a2.309,2.309,0,0,0,2.309-2.336Zm0,0" transform="translate(-6.661 -208.636)" fill="#fcc18b"/>
    <path id="Path_1563554" data-name="Path 1563554" d="M216.84,251.265a7.214,7.214,0,0,0-4.414-6.082c-3.116-1.459-11.6-3.666-11.6-3.666a1.731,1.731,0,0,1-1.415-1.7v-4.851h-6.019v7.76a1.73,1.73,0,0,0,1.415,1.7s8.486,2.208,11.6,3.667a7.214,7.214,0,0,1,4.414,6.082L211,265.166h3.72a2.309,2.309,0,0,0,2.309-2.336Zm0,0" transform="translate(-171.72 -208.636)" fill="#eaab65"/>
    <path id="Path_1563555" data-name="Path 1563555" d="M96.121,125.367H94.91a1.871,1.871,0,0,0-1.844,2.253l.476,2.619c.369,1.941,2.582,1.054,2.582,1.054Zm0,0" transform="translate(-82.608 -111.32)" fill="#eaab65"/>
    <path id="Path_1563556" data-name="Path 1563556" d="M291.269,125.367h1.211a1.871,1.871,0,0,1,1.844,2.253l-.476,2.619c-.369,1.941-2.582,1.054-2.582,1.054Zm0,0" transform="translate(-258.628 -111.32)" fill="#fcc18b"/>
    <path id="Path_1563557" data-name="Path 1563557" d="M134.917,14.657a9.538,9.538,0,0,0-13.426,0,10.155,10.155,0,0,0-3.1,7.462l0,9.925c0,4.692,6.1,9.551,9.807,9.551s9.807-4.859,9.807-9.551l0-9.925a10.157,10.157,0,0,0-3.1-7.462Zm0,0" transform="translate(-105.127 -10.562)" fill="#fcc18b"/>
    <path id="Path_1563558" data-name="Path 1563558" d="M188.8,14.657a9.907,9.907,0,0,0-6.713-2.762,9.635,9.635,0,0,0-3.01.511,10.428,10.428,0,0,1,3.7,2.251,10.155,10.155,0,0,1,3.1,7.462l0,9.925c0,3.55-3.492,7.2-6.8,8.76a7.3,7.3,0,0,0,3.009.791c3.709,0,9.807-4.859,9.807-9.551l0-9.925a10.155,10.155,0,0,0-3.1-7.462Zm0,0" transform="translate(-159.015 -10.562)" fill="#eaab65"/>
    <path id="Path_1563559" data-name="Path 1563559" d="M119.112,7.5H106.975a5.654,5.654,0,0,0-5.654,5.654v7.8a3.9,3.9,0,0,1,2.557.955.331.331,0,0,0,.562-.238V15.559a2.5,2.5,0,0,1,2.5-2.5h2.271a2.579,2.579,0,0,1,1.634.583l.223.182a3.121,3.121,0,0,0,3.951,0l.223-.182a2.579,2.579,0,0,1,1.634-.583h2.271a2.5,2.5,0,0,1,2.5,2.5v6.115a.331.331,0,0,0,.562.238,3.9,3.9,0,0,1,2.557-.955v-7.8A5.655,5.655,0,0,0,119.112,7.5Zm0,0" transform="translate(-89.967 -6.66)" fill="#002033"/>
    <path id="Path_1563560" data-name="Path 1563560" d="M243.463,7.5h-2.1a8.528,8.528,0,0,1,1.735,5.56h.4a2.5,2.5,0,0,1,2.5,2.5v6.115a.331.331,0,0,0,.562.238,3.9,3.9,0,0,1,2.557-.955v-7.8A5.655,5.655,0,0,0,243.463,7.5Zm0,0" transform="translate(-214.318 -6.66)" fill="#000e16"/>
    <path id="Path_1563561" data-name="Path 1563561" d="M47.367,304.568a68.608,68.608,0,0,0-8.164-2.725l-.588.223a25.063,25.063,0,0,1-17.753,0l-.588-.223a68.608,68.608,0,0,0-8.164,2.725,7.214,7.214,0,0,0-4.414,6.082L7.5,322.215a2.309,2.309,0,0,0,2.308,2.336H49.664a2.309,2.309,0,0,0,2.309-2.336l-.192-11.564a7.214,7.214,0,0,0-4.414-6.082Zm0,0" transform="translate(-6.661 -268.022)" fill="#88dbfd"/>
    <path id="Path_1563562" data-name="Path 1563562" d="M82.125,321.654H53.406a1.665,1.665,0,0,1-1.661-1.546l-1.174-16.48a1.665,1.665,0,0,1,1.661-1.784H83.3a1.665,1.665,0,0,1,1.661,1.784l-1.175,16.48a1.665,1.665,0,0,1-1.661,1.546Zm0,0" transform="translate(-44.9 -268.022)" fill="#f2f2f2"/>
    <path id="Path_1563563" data-name="Path 1563563" d="M294.649,301.844h-6.063a1.665,1.665,0,0,1,1.661,1.784l-1.285,18.026h4.512a1.664,1.664,0,0,0,1.661-1.546l1.175-16.48A1.665,1.665,0,0,0,294.649,301.844Zm0,0" transform="translate(-256.248 -268.022)" fill="#cdd6df"/>
    <path id="Path_1563564" data-name="Path 1563564" d="M82.221,481.535H49.8a1.449,1.449,0,0,1,0-2.9H82.221a1.449,1.449,0,0,1,0,2.9Zm0,0" transform="translate(-42.936 -425.005)" fill="#cdd6df"/>
    <path id="Path_1563565" data-name="Path 1563565" d="M189.88,377.8a2.319,2.319,0,1,1-2.319-2.319A2.319,2.319,0,0,1,189.88,377.8Zm0,0" transform="translate(-164.485 -333.404)" fill="#fff"/>
    <path id="Path_1563566" data-name="Path 1563566" d="M340.24,111.039a.785.785,0,0,0-.706-.758.312.312,0,0,0-.2.052l-2.636,1.712a.686.686,0,0,0,0,1.163l2.636,1.712a.312.312,0,0,0,.2.052.785.785,0,0,0,.706-.758.475.475,0,0,0-.187-.4l-1.827-1.183,1.827-1.183A.477.477,0,0,0,340.24,111.039Zm0,0" transform="translate(-298.686 -97.924)"/>
    <path id="Path_1563567" data-name="Path 1563567" d="M384.69,85.367a.457.457,0,0,0-.436.26l-3.643,7.482a.466.466,0,0,0-.052.2.574.574,0,0,0,.582.55.52.52,0,0,0,.467-.259l3.653-7.483a.45.45,0,0,0,.042-.2.6.6,0,0,0-.612-.55Zm0,0" transform="translate(-337.916 -75.802)"/>
    <path id="Path_1563568" data-name="Path 1563568" d="M436.156,112.045l-2.636-1.712a.314.314,0,0,0-.2-.052.785.785,0,0,0-.706.758.475.475,0,0,0,.187.4l1.827,1.183L432.8,113.81a.475.475,0,0,0-.187.4.785.785,0,0,0,.706.758.314.314,0,0,0,.2-.052l2.636-1.712a.686.686,0,0,0,0-1.163Zm0,0" transform="translate(-384.141 -97.924)"/>
    <path id="Path_1563569" data-name="Path 1563569" d="M53.307,4.178H35.213A6.506,6.506,0,0,0,29.145,0H17.008a6.5,6.5,0,0,0-6.495,6.495v7.375a2.74,2.74,0,0,0-.882,2.582l.477,2.625a2.286,2.286,0,0,0,1.022,1.595,2.47,2.47,0,0,0,1.3.344v.467c0,2.367,1.381,4.976,3.789,7.158a15.47,15.47,0,0,0,1.405,1.131v1.408a.89.89,0,0,1-.728.875l-.058.013c-.014,0-1.457.38-3.343.915H7.332a2.5,2.5,0,0,0-2.5,2.684l.017.237A8.046,8.046,0,0,0,.194,42.579v.035L0,54.183A3.148,3.148,0,0,0,3.15,57.37H43a3.149,3.149,0,0,0,3.149-3.191l-.191-11.564c0-.012,0-.024,0-.035a8.087,8.087,0,0,0-4.9-6.794l-.166-.076,0-.044a2.5,2.5,0,0,0-2.5-2.684H32.659c-1.886-.535-3.329-.911-3.343-.914l-.058-.013a.89.89,0,0,1-.728-.875V29.771a15.55,15.55,0,0,0,1.405-1.132,12.276,12.276,0,0,0,3.256-4.506h5.46l-.954,3.85a1.517,1.517,0,0,0,.649,1.653,1.516,1.516,0,0,0,1.775-.067L47.2,24.134h6.11a4.02,4.02,0,0,0,4.015-4.015V8.194a4.02,4.02,0,0,0-4.015-4.015ZM33.726,15.321a3.626,3.626,0,0,1,.824-.172,1.084,1.084,0,0,1,.319,1l-.474,2.612c-.069.365-.209.451-.255.48a.82.82,0,0,1-.414.093ZM12.194,6.495a4.819,4.819,0,0,1,4.814-4.814H29.145a4.819,4.819,0,0,1,4.814,4.814v7.041a4.891,4.891,0,0,0-1.439.484V8.9a3.344,3.344,0,0,0-3.34-3.34H26.909a3.433,3.433,0,0,0-2.166.773l-.222.182a2.281,2.281,0,0,1-2.887,0l-.223-.183a3.432,3.432,0,0,0-2.166-.773H16.973a3.343,3.343,0,0,0-3.34,3.34v5.12a4.889,4.889,0,0,0-1.439-.484Zm-.18,12.748c-.046-.028-.186-.115-.254-.473l-.476-2.619a1.086,1.086,0,0,1,.318-1,3.627,3.627,0,0,1,.825.172v4.015a.822.822,0,0,1-.414-.093ZM4.579,55.08a2.289,2.289,0,0,0,.082.609H3.15a1.468,1.468,0,0,1-1.468-1.482l.191-11.546a6.169,6.169,0,0,1,3.109-4.911l1.026,14.4a2.485,2.485,0,0,0,.174.752,2.293,2.293,0,0,0-1.6,2.184Zm35.145-2.936,1.043-14.627a6.257,6.257,0,0,1,3.513,5.143L44.472,54.2A1.468,1.468,0,0,1,43,55.689H41.492a2.29,2.29,0,0,0-1.908-2.878,2.473,2.473,0,0,0,.141-.666Zm.169,2.936a.609.609,0,0,1-.608.609H6.868a.609.609,0,0,1,0-1.217H39.285A.609.609,0,0,1,39.894,55.08ZM39,34.925a.816.816,0,0,1,.219.621l-1.175,16.48a.827.827,0,0,1-.822.766H8.506a.828.828,0,0,1-.822-.766L6.51,35.546a.824.824,0,0,1,.822-.883H38.4a.817.817,0,0,1,.6.263ZM27.587,32.981H18.566a2.568,2.568,0,0,0,.738-1.8V30.8a8.518,8.518,0,0,0,3.772,1.071A8.521,8.521,0,0,0,26.849,30.8v.376a2.568,2.568,0,0,0,.738,1.8Zm1.219-5.588c-1.876,1.7-4.125,2.8-5.73,2.8s-3.853-1.1-5.729-2.8c-2.057-1.863-3.237-4.019-3.237-5.912l0-5.294h.033a1.175,1.175,0,0,0,1.173-1.173V8.9A1.661,1.661,0,0,1,16.973,7.24h2.271a1.745,1.745,0,0,1,1.1.393l.223.183a3.962,3.962,0,0,0,5.015,0l.223-.182a1.746,1.746,0,0,1,1.1-.393H29.18A1.661,1.661,0,0,1,30.839,8.9v6.115a1.175,1.175,0,0,0,1.205,1.173v5.295c0,1.893-1.18,4.049-3.237,5.912Zm26.836-7.275a2.337,2.337,0,0,1-2.335,2.335h-6.4a.839.839,0,0,0-.512.174l-6.971,5.354L40.541,23.5a.84.84,0,0,0-.815-1.043H33.649a6.494,6.494,0,0,0,.075-.971v-.467a2.47,2.47,0,0,0,1.3-.344,2.289,2.289,0,0,0,1.023-1.6l.476-2.619a2.74,2.74,0,0,0-.882-2.582V6.495c0-.214-.011-.426-.031-.636h17.7a2.337,2.337,0,0,1,2.335,2.335Zm0,0" transform="translate(0)"/>
    <path id="Path_1563570" data-name="Path 1563570" d="M180.9,374.295a3.159,3.159,0,1,0-3.159-3.159A3.163,3.163,0,0,0,180.9,374.295Zm0-4.638a1.479,1.479,0,1,1-1.479,1.479A1.48,1.48,0,0,1,180.9,369.657Zm0,0" transform="translate(-157.825 -326.744)"/>
  </g>
</svg>
