<svg xmlns="http://www.w3.org/2000/svg" width="58" height="58" viewBox="0 0 58 58">
  <g id="augmented-reality" transform="translate(-7 -7)">
    <path id="Path_1563571" data-name="Path 1563571" d="M7.5,134.6c0-5.759,12.76-10.427,28.5-10.427s28.5,4.668,28.5,10.427V109.117c0-5.759-12.76-10.427-28.5-10.427S7.5,103.358,7.5,109.117Z" transform="translate(0 -80.732)" fill="#01d0fb"/>
    <path id="Path_1563572" data-name="Path 1563572" d="M82.252,101.664v25.488a61.318,61.318,0,0,1,19.927-2.973,61.318,61.318,0,0,1,19.927,2.973V101.664a61.317,61.317,0,0,0-19.927-2.973A61.317,61.317,0,0,0,82.252,101.664Z" transform="translate(-66.179 -80.732)" fill="#01c0fa"/>
    <g id="Group_1137635" data-name="Group 1137635" transform="translate(19.78 7.5)">
      <path id="Path_1563573" data-name="Path 1563573" d="M143.309,64.5H118.284a3.707,3.707,0,0,1-3.707-3.707V11.207A3.707,3.707,0,0,1,118.284,7.5h25.024a3.707,3.707,0,0,1,3.707,3.707V60.793A3.707,3.707,0,0,1,143.309,64.5Z" transform="translate(-114.577 -7.5)" fill="#72c1e8"/>
      <path id="Path_1563574" data-name="Path 1563574" d="M336.48,7.5h-3.707a3.707,3.707,0,0,1,3.707,3.707V60.793a3.707,3.707,0,0,1-3.707,3.707h3.707a3.707,3.707,0,0,0,3.707-3.707V11.207A3.707,3.707,0,0,0,336.48,7.5Z" transform="translate(-307.748 -7.5)" fill="#56b1de"/>
      <path id="Path_1563575" data-name="Path 1563575" d="M170.766,39.825h-4.613a.927.927,0,0,0-.786.436l-.844,1.351a1.622,1.622,0,0,1-1.375.762h-7.47a1.622,1.622,0,0,1-1.375-.762l-.844-1.351a.927.927,0,0,0-.786-.436h-4.613a1.159,1.159,0,0,0-1.159,1.159V88.252a1.159,1.159,0,0,0,1.159,1.159h22.707a1.159,1.159,0,0,0,1.159-1.159V40.984A1.158,1.158,0,0,0,170.766,39.825Z" transform="translate(-143.193 -36.118)" fill="#99e6fc"/>
      <path id="Path_1563576" data-name="Path 1563576" d="M326.378,39.825h-3.707a1.159,1.159,0,0,1,1.159,1.159V88.252a1.159,1.159,0,0,1-1.159,1.159h3.707a1.159,1.159,0,0,0,1.159-1.159V40.984A1.159,1.159,0,0,0,326.378,39.825Z" transform="translate(-298.805 -36.118)" fill="#62dbfb"/>
    </g>
    <path id="Path_1563577" data-name="Path 1563577" d="M16.073,198.343a1.854,1.854,0,0,0-1.156-1.723C10.31,194.768,7.5,192.307,7.5,189.6v25.488c0,2.611,2.624,5,6.96,6.827a1.16,1.16,0,0,0,1.614-1.066Z" transform="translate(0 -161.22)" fill="#c8effe"/>
    <path id="Path_1563578" data-name="Path 1563578" d="M429.748,198.342a1.854,1.854,0,0,1,1.156-1.723c4.608-1.852,7.417-4.313,7.417-7.015v25.488c0,2.611-2.624,5-6.96,6.827a1.16,1.16,0,0,1-1.614-1.066Z" transform="translate(-373.821 -161.219)" fill="#c8effe"/>
    <path id="Path_1563579" data-name="Path 1563579" d="M474.2,194.6v25.488c2.215-1.483,3.476-3.184,3.476-4.992V189.6C477.671,191.414,476.41,193.114,474.2,194.6Z" transform="translate(-413.171 -161.22)" fill="#99e6fc"/>
    <path id="Path_1563580" data-name="Path 1563580" d="M198.765,231.877,191.35,228.4v-9.268l7.415,3.476Z" transform="translate(-162.765 -187.361)" fill="#074b72"/>
    <path id="Path_1563581" data-name="Path 1563581" d="M256,231.877l7.415-3.476v-9.268L256,222.609Z" transform="translate(-220 -187.361)" fill="#002033"/>
    <path id="Path_1563582" data-name="Path 1563582" d="M191.35,192.3l7.415-3.476,7.415,3.476-7.415,3.476Z" transform="translate(-162.765 -160.532)" fill="#1777af"/>
    <path id="Path_1563583" data-name="Path 1563583" d="M397.423,114.84c7.42,1.883,12.28,5.021,12.28,8.574" transform="translate(-345.203 -95.029)" fill="none" stroke="#000" stroke-linecap="round" stroke-linejoin="round" stroke-miterlimit="10" stroke-width="1"/>
    <path id="Path_1563584" data-name="Path 1563584" d="M7.5,123.414c0-3.553,4.86-6.692,12.28-8.574" transform="translate(0 -95.029)" fill="none" stroke="#000" stroke-linecap="round" stroke-linejoin="round" stroke-miterlimit="10" stroke-width="1"/>
    <path id="Path_1563585" data-name="Path 1563585" d="M401.13,338.2c-1.146-.41-2.385-.785-3.707-1.12" transform="translate(-345.203 -291.778)" fill="none" stroke="#000" stroke-linecap="round" stroke-linejoin="round" stroke-miterlimit="10" stroke-width="1"/>
    <path id="Path_1563586" data-name="Path 1563586" d="M85.959,337.076c-1.322.336-2.562.71-3.707,1.12" transform="translate(-66.179 -291.778)" fill="none" stroke="#000" stroke-linecap="round" stroke-linejoin="round" stroke-miterlimit="10" stroke-width="1"/>
    <path id="Path_1563587" data-name="Path 1563587" d="M143.309,64.5H118.284a3.707,3.707,0,0,1-3.707-3.707V11.207A3.707,3.707,0,0,1,118.284,7.5h25.024a3.707,3.707,0,0,1,3.707,3.707V60.793A3.707,3.707,0,0,1,143.309,64.5Z" transform="translate(-94.797)" fill="none" stroke="#000" stroke-linecap="round" stroke-linejoin="round" stroke-miterlimit="10" stroke-width="1"/>
    <path id="Path_1563588" data-name="Path 1563588" d="M146.9,50.993V88.256a1.159,1.159,0,0,0,1.158,1.158h22.708a1.159,1.159,0,0,0,1.158-1.158V40.988a1.159,1.159,0,0,0-1.158-1.158h-4.613a.928.928,0,0,0-.787.435l-.844,1.351a1.621,1.621,0,0,1-1.375.763h-7.471a1.621,1.621,0,0,1-1.375-.763l-.844-1.351a.928.928,0,0,0-.787-.435h-4.613a1.159,1.159,0,0,0-1.158,1.158v5.99" transform="translate(-123.412 -28.622)" fill="none" stroke="#000" stroke-linecap="round" stroke-linejoin="round" stroke-miterlimit="10" stroke-width="1"/>
    <g id="Group_1137638" data-name="Group 1137638" transform="translate(29.324 47.991)">
      <g id="Group_1137636" data-name="Group 1137636">
        <path id="Path_1563589" data-name="Path 1563589" d="M197.786,367.971l2.927-7.415,2.927,7.415" transform="translate(-197.786 -360.556)" fill="none" stroke="#000" stroke-linecap="round" stroke-linejoin="round" stroke-miterlimit="10" stroke-width="1"/>
        <line id="Line_10309" data-name="Line 10309" x2="4.132" transform="translate(0.868 5.594)" fill="none" stroke="#000" stroke-linecap="round" stroke-linejoin="round" stroke-miterlimit="10" stroke-width="1"/>
      </g>
      <g id="Group_1137637" data-name="Group 1137637" transform="translate(9.33)">
        <line id="Line_10310" data-name="Line 10310" x2="3.115" y2="3.539" transform="translate(0.908 3.876)" fill="none" stroke="#000" stroke-linecap="round" stroke-linejoin="round" stroke-miterlimit="10" stroke-width="1"/>
        <line id="Line_10311" data-name="Line 10311" y2="3.552" transform="translate(0 3.862)" fill="none" stroke="#000" stroke-linecap="round" stroke-linejoin="round" stroke-miterlimit="10" stroke-width="1"/>
        <path id="Path_1563590" data-name="Path 1563590" d="M283.163,362.483a2,2,0,0,1-2.036,1.927c-.547,0-1.987.008-1.987.008v-3.862h1.987A2,2,0,0,1,283.163,362.483Z" transform="translate(-279.14 -360.556)" fill="none" stroke="#000" stroke-linecap="round" stroke-linejoin="round" stroke-miterlimit="10" stroke-width="1"/>
      </g>
    </g>
    <path id="Path_1563591" data-name="Path 1563591" d="M16.073,215.923v4.935a1.16,1.16,0,0,1-1.614,1.065C10.124,220.1,7.5,217.709,7.5,215.1V189.61c0,2.7,2.81,5.162,7.418,7.014a1.855,1.855,0,0,1,1.155,1.723v13.562" transform="translate(0 -161.224)" fill="none" stroke="#000" stroke-linecap="round" stroke-linejoin="round" stroke-miterlimit="10" stroke-width="1"/>
    <path id="Path_1563592" data-name="Path 1563592" d="M429.75,205.524v15.334a1.16,1.16,0,0,0,1.614,1.065c4.335-1.828,6.959-4.215,6.959-6.826V189.61c0,2.7-2.81,5.162-7.418,7.014a1.855,1.855,0,0,0-1.155,1.723v3.163" transform="translate(-373.823 -161.224)" fill="none" stroke="#000" stroke-linecap="round" stroke-linejoin="round" stroke-miterlimit="10" stroke-width="1"/>
    <path id="Path_1563593" data-name="Path 1563593" d="M191.35,192.3l7.415-3.476,7.415,3.476-7.415,3.476Z" transform="translate(-162.765 -160.532)" fill="none" stroke="#000" stroke-linecap="round" stroke-linejoin="round" stroke-miterlimit="10" stroke-width="1"/>
    <path id="Path_1563594" data-name="Path 1563594" d="M198.765,231.877,191.35,228.4v-9.268l7.415,3.476Z" transform="translate(-162.765 -187.361)" fill="none" stroke="#000" stroke-linecap="round" stroke-linejoin="round" stroke-miterlimit="10" stroke-width="1"/>
    <path id="Path_1563595" data-name="Path 1563595" d="M256,231.877l7.415-3.476v-9.268L256,222.609Z" transform="translate(-220 -187.361)" fill="none" stroke="#000" stroke-linecap="round" stroke-linejoin="round" stroke-miterlimit="10" stroke-width="1"/>
    <line id="Line_10312" data-name="Line 10312" y1="2.923" transform="translate(36 21.665)" fill="none" stroke="#000" stroke-linecap="round" stroke-linejoin="round" stroke-miterlimit="10" stroke-width="1"/>
    <line id="Line_10313" data-name="Line 10313" y1="2.228" transform="translate(39.707 23.519)" fill="none" stroke="#000" stroke-linecap="round" stroke-linejoin="round" stroke-miterlimit="10" stroke-width="1"/>
    <line id="Line_10314" data-name="Line 10314" y1="1.97" transform="translate(43.415 25.141)" fill="none" stroke="#000" stroke-linecap="round" stroke-linejoin="round" stroke-miterlimit="10" stroke-width="1"/>
    <line id="Line_10315" data-name="Line 10315" y1="2.228" transform="translate(32.293 23.519)" fill="none" stroke="#000" stroke-linecap="round" stroke-linejoin="round" stroke-miterlimit="10" stroke-width="1"/>
    <line id="Line_10316" data-name="Line 10316" y1="1.97" transform="translate(28.585 25.141)" fill="none" stroke="#000" stroke-linecap="round" stroke-linejoin="round" stroke-miterlimit="10" stroke-width="1"/>
  </g>
</svg>
