<svg xmlns="http://www.w3.org/2000/svg" width="60.924" height="57.021" viewBox="0 0 60.924 57.021">
  <g id="prototype_1_" data-name="prototype (1)" transform="translate(-5.42 -13.26)">
    <path id="Path_1563532" data-name="Path 1563532" d="M0,10Z" transform="translate(26.059 11.046)" fill="#7d7b79"/>
    <path id="Path_1563489" data-name="Path 1563489" d="M88.48,36.89h19.64V62.836H88.48Z" transform="translate(-62.421 -17.758)" fill="#efefef"/>
    <path id="Path_1563490" data-name="Path 1563490" d="M194.384,140.485V160.91a2.485,2.485,0,0,1-2.485,2.485H179.115a2.485,2.485,0,0,1-2.485-2.485V152.66a1.943,1.943,0,1,0,0-3.884v-8.292A2.485,2.485,0,0,1,179.115,138H191.9A2.485,2.485,0,0,1,194.384,140.485Z" transform="translate(-128.668 -93.745)" fill="#efefef"/>
    <path id="Path_1563491" data-name="Path 1563491" d="M23.731,150.707a1.943,1.943,0,0,0,1.943,1.953v8.272a2.485,2.485,0,0,1-2.485,2.485H10.4a2.485,2.485,0,0,1-2.485-2.485V140.485A2.485,2.485,0,0,1,10.4,138H23.189a2.485,2.485,0,0,1,2.485,2.485v8.269a1.943,1.943,0,0,0-1.943,1.953Z" transform="translate(-1.879 -93.745)" fill="#efefef"/>
    <path id="Path_1563492" data-name="Path 1563492" d="M24.92,167.66h9.308v5.921H24.92Z" transform="translate(-14.655 -116.035)" fill="#72c1e8"/>
    <path id="Path_1563493" data-name="Path 1563493" d="M193.63,167.66h9.308v5.921H193.63Z" transform="translate(-141.444 -116.035)" fill="#72c1e8"/>
    <path id="Path_1563494" data-name="Path 1563494" d="M103.16,63.61H115.5v5.921H103.16Z" transform="translate(-73.454 -37.839)" fill="#72c1e8"/>
    <path id="Path_1563495" data-name="Path 1563495" d="M103.16,110.25h4.659v3.19H103.16Z" transform="translate(-73.454 -72.89)" fill="#72c1e8"/>
    <path id="Path_1563496" data-name="Path 1563496" d="M134.1,110.25h4.659v3.19H134.1Z" transform="translate(-96.706 -72.89)" fill="#72c1e8"/>
    <path id="Path_1563497" data-name="Path 1563497" d="M73.486,181.32a1.943,1.943,0,1,0,1.941,1.943,1.943,1.943,0,0,0-1.941-1.943Z" transform="translate(-49.691 -126.301)" fill="#72c1e8"/>
    <g id="Group_1137633" data-name="Group 1137633" transform="translate(12.348 28.549)">
      <path id="Path_1563501" data-name="Path 1563501" d="M170.753,181.32a1.943,1.943,0,1,0,1.943,1.943A1.943,1.943,0,0,0,170.753,181.32Z" transform="translate(-135.139 -154.85)" fill="#72c1e8"/>
      <path id="Path_1563502" data-name="Path 1563502" d="M38.443,77.856c-.994-.326-2-.609-2.569-3.066-.529,2.264-1.372,2.669-2.574,3.066,1.963.649,2.259,1.724,2.572,3.069C36.408,78.607,37.3,78.234,38.443,77.856Z" transform="translate(-33.3 -74.79)" fill="#72c1e8"/>
      <path id="Path_1563503" data-name="Path 1563503" d="M207.151,77.856c-.994-.326-1.988-.609-2.569-3.066-.527,2.264-1.369,2.669-2.572,3.066,1.963.649,2.259,1.724,2.572,3.069C205.118,78.607,206.008,78.234,207.151,77.856Z" transform="translate(-160.089 -74.79)" fill="#72c1e8"/>
      <path id="Path_1563504" data-name="Path 1563504" d="M122.794,211.846c-.994-.326-1.988-.609-2.572-3.066-.524,2.264-1.367,2.669-2.572,3.066,1.963.649,2.259,1.722,2.572,3.069C120.758,212.6,121.65,212.224,122.794,211.846Z" transform="translate(-96.691 -175.486)" fill="#72c1e8"/>
    </g>
    <path id="Path_1563505" data-name="Path 1563505" d="M202.848,204.21h-7.536a.621.621,0,1,0,0,1.242h7.536a.621.621,0,0,0,0-1.242Z" transform="translate(-142.241 -143.503)"/>
    <path id="Path_1563506" data-name="Path 1563506" d="M202.848,214.87h-7.536a.621.621,0,1,0,0,1.242h7.536a.621.621,0,1,0,0-1.242Z" transform="translate(-142.241 -151.514)"/>
    <path id="Path_1563507" data-name="Path 1563507" d="M34.551,179.41a.624.624,0,0,0-.621.621v.087a.621.621,0,1,0,1.242,0v-.087A.624.624,0,0,0,34.551,179.41Z" transform="translate(-21.426 -124.865)"/>
    <path id="Path_1563508" data-name="Path 1563508" d="M41.771,179.41a.621.621,0,0,0-.621.621v.087a.621.621,0,1,0,1.242,0v-.087A.621.621,0,0,0,41.771,179.41Z" transform="translate(-26.852 -124.865)"/>
    <path id="Path_1563509" data-name="Path 1563509" d="M48.981,179.41a.624.624,0,0,0-.621.621v.087a.621.621,0,1,0,1.242,0v-.087A.624.624,0,0,0,48.981,179.41Z" transform="translate(-32.27 -124.865)"/>
    <path id="Path_1563510" data-name="Path 1563510" d="M22.42,165.771v5.921a.616.616,0,0,0,.621.621h9.306a.619.619,0,0,0,.621-.621v-5.921a.624.624,0,0,0-.621-.621H23.041a.624.624,0,0,0-.621.621Zm1.242.621h8.063v4.684H23.662Z" transform="translate(-12.776 -114.149)"/>
    <path id="Path_1563511" data-name="Path 1563511" d="M203.261,180.739a.624.624,0,0,0,.621-.621v-.087a.621.621,0,1,0-1.242,0v.087A.624.624,0,0,0,203.261,180.739Z" transform="translate(-148.215 -124.865)"/>
    <path id="Path_1563512" data-name="Path 1563512" d="M210.481,180.9a.626.626,0,0,0,.621-.624v-.084a.624.624,0,0,0-1.242,0v.084A.626.626,0,0,0,210.481,180.9Z" transform="translate(-153.641 -125.026)"/>
    <path id="Path_1563513" data-name="Path 1563513" d="M217.691,180.737a.621.621,0,0,0,.621-.621v-.084a.621.621,0,1,0-1.242,0v.084A.621.621,0,0,0,217.691,180.737Z" transform="translate(-159.06 -124.865)"/>
    <path id="Path_1563514" data-name="Path 1563514" d="M201.68,171.7v-5.921a.624.624,0,0,0-.621-.619h-9.308a.619.619,0,0,0-.621.619V171.7a.624.624,0,0,0,.621.624h9.308A.626.626,0,0,0,201.68,171.7Zm-1.242-.619H192.37V166.4h8.066Z" transform="translate(-139.565 -114.156)"/>
    <path id="Path_1563515" data-name="Path 1563515" d="M101.281,97.582h12.344a.621.621,0,1,0,0-1.242H101.281a.621.621,0,1,0,0,1.242Z" transform="translate(-71.575 -62.436)"/>
    <path id="Path_1563516" data-name="Path 1563516" d="M118.9,75.36a.624.624,0,0,0-.621.621v.087a.621.621,0,1,0,1.242,0v-.087A.624.624,0,0,0,118.9,75.36Z" transform="translate(-84.817 -46.67)"/>
    <path id="Path_1563517" data-name="Path 1563517" d="M126.121,75.36a.624.624,0,0,0-.621.621v.087a.621.621,0,0,0,1.242,0v-.087A.624.624,0,0,0,126.121,75.36Z" transform="translate(-90.243 -46.67)"/>
    <path id="Path_1563518" data-name="Path 1563518" d="M133.341,75.36a.624.624,0,0,0-.621.621v.087a.621.621,0,1,0,1.242,0v-.087A.624.624,0,0,0,133.341,75.36Z" transform="translate(-95.669 -46.67)"/>
    <path id="Path_1563519" data-name="Path 1563519" d="M101.281,68.271h12.344a.619.619,0,0,0,.621-.619V61.729a.619.619,0,0,0-.621-.619H101.281a.619.619,0,0,0-.621.619v5.924a.619.619,0,0,0,.621.619Zm.621-5.921H113v4.679H101.9Z" transform="translate(-71.575 -35.96)"/>
    <path id="Path_1563520" data-name="Path 1563520" d="M34.138,151.682a.621.621,0,1,0,0-1.242H26.6a.621.621,0,1,0,0,1.242Z" transform="translate(-15.451 -103.094)"/>
    <path id="Path_1563521" data-name="Path 1563521" d="M34.138,204.21H26.6a.621.621,0,1,0,0,1.242h7.536a.621.621,0,1,0,0-1.242Z" transform="translate(-15.451 -143.503)"/>
    <path id="Path_1563522" data-name="Path 1563522" d="M34.759,215.5a.621.621,0,0,0-.621-.619H26.6a.621.621,0,1,0,0,1.242h7.536a.621.621,0,0,0,.621-.624Z" transform="translate(-15.451 -151.522)"/>
    <path id="Path_1563523" data-name="Path 1563523" d="M202.848,150.44h-7.536a.621.621,0,1,0,0,1.242h7.536a.621.621,0,0,0,0-1.242Z" transform="translate(-142.241 -103.094)"/>
    <path id="Path_1563524" data-name="Path 1563524" d="M5.42,46.74V67.165a3.111,3.111,0,0,0,3.106,3.106h.681a.621.621,0,1,0,0-1.242H8.526a1.869,1.869,0,0,1-1.864-1.864V46.74a1.871,1.871,0,0,1,1.864-1.864H21.31a1.871,1.871,0,0,1,1.864,1.864v7.725a2.564,2.564,0,0,0,0,4.97V67.16a1.869,1.869,0,0,1-1.864,1.864H14.176a.621.621,0,1,0,0,1.242H21.31a3.111,3.111,0,0,0,3.106-3.106V59.445a2.567,2.567,0,0,0,1.861-1.861h3.332a3.111,3.111,0,0,0,3.106-3.106V49.97h6.393v4.5a3.111,3.111,0,0,0,3.106,3.106h3.272a2.567,2.567,0,0,0,1.861,1.861v7.73a3.111,3.111,0,0,0,3.106,3.106H63.238a3.111,3.111,0,0,0,3.106-3.106V46.74a3.111,3.111,0,0,0-3.106-3.106H62.148a.621.621,0,1,0,0,1.242h1.091A1.871,1.871,0,0,1,65.1,46.74V67.165a1.871,1.871,0,0,1-1.864,1.864H50.447a1.871,1.871,0,0,1-1.864-1.864V59.45a2.564,2.564,0,0,0,0-4.97V46.74a1.871,1.871,0,0,1,1.864-1.864h6.724a.621.621,0,1,0,0-1.242H50.447a3.111,3.111,0,0,0-3.106,3.106v7.728a2.567,2.567,0,0,0-1.861,1.864H42.207a1.864,1.864,0,0,1-1.864-1.864v-4.5h2.87a3.108,3.108,0,0,0,3.106-3.106v-30.5a3.111,3.111,0,0,0-3.106-3.106H28.553a3.111,3.111,0,0,0-3.111,3.106v30.5a3.108,3.108,0,0,0,3.1,3.1h2.93v4.5a1.864,1.864,0,0,1-1.864,1.864H26.277a2.567,2.567,0,0,0-1.861-1.864V46.74a3.111,3.111,0,0,0-3.106-3.106H8.526A3.111,3.111,0,0,0,5.42,46.74ZM47.962,55.63a1.317,1.317,0,1,0,0,.01ZM30.32,39.919V37.971h3.417v1.948Zm8.789,8.809H32.723V45.7h6.386Zm-1.088-8.8V37.979h3.417v1.948Zm7.052,6.94a1.864,1.864,0,0,1-1.864,1.864H40.351V45.7h4.721Zm-18.387-30.5A1.864,1.864,0,0,1,28.548,14.5h14.66a1.864,1.864,0,0,1,1.864,1.864V18.51H26.685Zm0,3.387H45.072v24.7H40.351V41.172h1.707a.619.619,0,0,0,.621-.621V37.36a.621.621,0,0,0-.621-.621H37.392a.619.619,0,0,0-.619.621v3.19a.619.619,0,0,0,.619.621h1.717v3.282H32.723V41.172h1.65a.619.619,0,0,0,.619-.621V37.36a.619.619,0,0,0-.619-.621H29.706a.621.621,0,0,0-.621.621v3.19a.621.621,0,0,0,.621.621h1.767v3.282H26.685Zm1.859,28.975a1.864,1.864,0,0,1-1.864-1.864V45.7h4.793v3.031ZM23.795,55.64a1.322,1.322,0,1,1-1.322,1.322,1.322,1.322,0,0,1,1.322-1.322Z" transform="translate(0 0)"/>
    <circle id="Ellipse_53979" data-name="Ellipse 53979" cx="0.621" cy="0.621" r="0.621" transform="translate(11.07 69.038)"/>
    <circle id="Ellipse_53980" data-name="Ellipse 53980" cx="0.621" cy="0.621" r="0.621" transform="translate(59.034 43.644)"/>
    <path id="Path_1563525" data-name="Path 1563525" d="M101.281,51.242h2.388a.621.621,0,1,0,0-1.242h-2.388a.621.621,0,1,0,0,1.242Z" transform="translate(-71.575 -27.611)"/>
    <path id="Path_1563526" data-name="Path 1563526" d="M121.321,51.242h2.388a.621.621,0,1,0,0-1.242h-2.388a.621.621,0,1,0,0,1.242Z" transform="translate(-86.635 -27.611)"/>
    <path id="Path_1563527" data-name="Path 1563527" d="M141.351,51.242h2.388a.621.621,0,0,0,0-1.242h-2.388a.621.621,0,0,0,0,1.242Z" transform="translate(-101.688 -27.611)"/>
    <path id="Path_1563528" data-name="Path 1563528" d="M122.68,24.38h-3.4a.621.621,0,0,0,0,1.242h3.4a.621.621,0,1,0,0-1.242Z" transform="translate(-85.102 -8.357)"/>
    <path id="Path_1563529" data-name="Path 1563529" d="M33.278,79.126a.663.663,0,0,0,1.29,0c.472-2.04,1.17-2.271,2.134-2.589a.661.661,0,0,0,0-1.242c-.927-.306-1.65-.5-2.134-2.589a.663.663,0,0,0-1.29,0c-.472,2.04-1.133,2.259-2.134,2.589a.661.661,0,0,0,0,1.242C32.806,77.086,32.995,77.9,33.278,79.126Zm.649-4.353a3.374,3.374,0,0,0,.994,1.143,3.253,3.253,0,0,0-.984,1.1,3.429,3.429,0,0,0-1.036-1.1A3.282,3.282,0,0,0,33.927,74.773Z" transform="translate(-19.005 -44.293)"/>
    <path id="Path_1563530" data-name="Path 1563530" d="M205.412,75.245c-.927-.306-1.65-.5-2.134-2.589a.663.663,0,0,0-1.29,0c-.472,2.04-1.133,2.259-2.134,2.589a.661.661,0,0,0,0,1.242c1.662.549,1.851,1.359,2.134,2.589a.663.663,0,0,0,1.29,0c.472-2.04,1.17-2.271,2.134-2.589a.661.661,0,0,0,0-1.242Zm-2.766,1.739a3.429,3.429,0,0,0-1.036-1.1,3.282,3.282,0,0,0,1.026-1.15,3.374,3.374,0,0,0,.994,1.143,3.252,3.252,0,0,0-.984,1.1Z" transform="translate(-145.794 -44.256)"/>
    <path id="Path_1563531" data-name="Path 1563531" d="M117.584,213.062a.661.661,0,0,0,1.287,0c.475-2.04,1.17-2.271,2.134-2.589a.661.661,0,0,0,0-1.255c-.927-.306-1.65-.5-2.134-2.592a.661.661,0,0,0-1.287,0c-.475,2.042-1.136,2.261-2.134,2.592a.661.661,0,0,0,0,1.255c1.66.549,1.849,1.359,2.134,2.589Zm.646-4.356a3.389,3.389,0,0,0,.994,1.145,3.27,3.27,0,0,0-.979,1.1,3.479,3.479,0,0,0-1.034-1.093,3.265,3.265,0,0,0,1.016-1.153Z" transform="translate(-82.349 -144.936)"/>
  </g>
</svg>
