<svg xmlns="http://www.w3.org/2000/svg" width="60.808" height="57" viewBox="0 0 60.808 57">
  <g id="rocket" transform="translate(0 -16.032)">
    <g id="Group_1137650" data-name="Group 1137650" transform="translate(0.89 17.332)">
      <path id="Path_1563685" data-name="Path 1563685" d="M94.245,151.79H50.438a2.855,2.855,0,0,0-2.857,2.852v35.179H97.1V154.642a2.855,2.855,0,0,0-2.857-2.852Z" transform="translate(-42.827 -136.912)" fill="#c3ddff"/>
      <path id="Path_1563686" data-name="Path 1563686" d="M113.541,206.264H73.534a1.9,1.9,0,0,1-1.905-1.9V177.741a1.9,1.9,0,0,1,1.905-1.9H113.54a1.9,1.9,0,0,1,1.905,1.9v26.622A1.9,1.9,0,0,1,113.541,206.264Z" transform="translate(-64.023 -158.108)" fill="#dbeaff"/>
      <path id="Path_1563687" data-name="Path 1563687" d="M165.512,191.871l-5.018,5.854a2.852,2.852,0,0,0-.687,1.856v2.748l8.557-4.754Z" transform="translate(-141.713 -172.281)" fill="#72c1e8"/>
      <path id="Path_1563688" data-name="Path 1563688" d="M185.921,199.731l3.88-2.155-2.852-5.7-2.82,3.29A25.47,25.47,0,0,0,185.921,199.731Z" transform="translate(-163.148 -172.283)" fill="#5eb6e2"/>
      <path id="Path_1563689" data-name="Path 1563689" d="M282.9,191.871l5.018,5.854a2.852,2.852,0,0,1,.687,1.856v2.748l-8.557-4.754Z" transform="translate(-247.67 -172.281)" fill="#72c1e8"/>
      <path id="Path_1563690" data-name="Path 1563690" d="M7.5,456.4v1.9a1.9,1.9,0,0,0,1.9,1.9H64.625a1.9,1.9,0,0,0,1.9-1.9v-1.9Z" transform="translate(-7.5 -405.395)" fill="#dad8db"/>
      <path id="Path_1563691" data-name="Path 1563691" d="M207.228,27.287a.941.941,0,0,0-1.37,0A23.043,23.043,0,0,0,203.471,55.1h6.143a23.043,23.043,0,0,0-2.387-27.817Z" transform="translate(-177.028 -26.991)" fill="#72c1e8"/>
      <path id="Path_1563692" data-name="Path 1563692" d="M205.974,105.727a.982.982,0,0,1-.887-.6,22,22,0,0,1-.128-17.464h-3.443a23.1,23.1,0,0,0-1.629,8.557,22.86,22.86,0,0,0,3.584,12.36h6.143a22.512,22.512,0,0,0,1.545-2.852h-5.185Z" transform="translate(-177.03 -80.466)" fill="#5eb6e2"/>
      <path id="Path_1563693" data-name="Path 1563693" d="M231.541,267.819h-7.606l.731-3.8h6.143Z" transform="translate(-198.224 -235.861)" fill="#c8c5c9"/>
      <circle id="Ellipse_53986" data-name="Ellipse 53986" cx="2.852" cy="2.852" r="2.852" transform="translate(26.662 11.969)" fill="#c3ddff"/>
      <path id="Path_1563694" data-name="Path 1563694" d="M213.619,34.186h10.053a22.25,22.25,0,0,0-4.342-6.9.941.941,0,0,0-1.37,0A22.25,22.25,0,0,0,213.619,34.186Z" transform="translate(-189.131 -26.99)" fill="#72c1e8"/>
      <path id="Path_1563695" data-name="Path 1563695" d="M217.064,34.186a21.362,21.362,0,0,1,3.4-5.563c-.362-.459-.733-.911-1.129-1.337a.941.941,0,0,0-1.37,0,22.243,22.243,0,0,0-4.342,6.9Z" transform="translate(-189.135 -26.99)" fill="#5eb6e2"/>
      <path id="Path_1563696" data-name="Path 1563696" d="M121.006,334.8a6.658,6.658,0,0,0-2.18.371,4.718,4.718,0,0,0-7.537-2.095,3.754,3.754,0,0,0,.19-1.129,3.811,3.811,0,0,0-7.622,0,3.755,3.755,0,0,0,.19,1.129,4.718,4.718,0,0,0-7.537,2.095,6.651,6.651,0,0,0-8.569,8.186h39.454a6.649,6.649,0,0,0-6.389-8.557Z" transform="translate(-78.153 -292.349)" fill="#fff"/>
      <path id="Path_1563697" data-name="Path 1563697" d="M235.794,127.742a2.843,2.843,0,0,0-2.719,2.035,2.822,2.822,0,0,1,.818-.133,2.814,2.814,0,0,1,2.719,3.67,2.844,2.844,0,0,0-.818-5.571Z" transform="translate(-206.279 -115.774)" fill="#a4ccff"/>
    </g>
    <g id="Group_1137651" data-name="Group 1137651" transform="translate(0 16.033)">
      <path id="Path_1563698" data-name="Path 1563698" d="M59.917,180.486h-3.87V148.04a3.752,3.752,0,0,0-3.747-3.749H40.877a.891.891,0,0,0,0,1.782H52.3a1.968,1.968,0,0,1,1.965,1.966v32.447H51.218a7.541,7.541,0,0,0-9.156-8.382,5.633,5.633,0,0,0-4.994-3.048,5.5,5.5,0,0,0-1.994.371,4.7,4.7,0,0,0-9.341,0,5.5,5.5,0,0,0-1.994-.371,5.633,5.633,0,0,0-4.994,3.048,7.441,7.441,0,0,0-1.671-.191,7.546,7.546,0,0,0-7.485,8.573H6.542V148.04a1.968,1.968,0,0,1,1.965-1.966H19.932a.891.891,0,0,0,0-1.782H8.507A3.752,3.752,0,0,0,4.76,148.04v32.447H.891a.891.891,0,0,0-.891.891v1.9a2.8,2.8,0,0,0,2.795,2.8H58.013a2.8,2.8,0,0,0,2.795-2.8v-1.9A.891.891,0,0,0,59.917,180.486Zm-.891,2.8a1.015,1.015,0,0,1-1.013,1.014H2.795a1.015,1.015,0,0,1-1.013-1.014v-1.014H13.267a.891.891,0,0,0,0-1.782H11.393a5.723,5.723,0,0,1-.091-1.014,5.76,5.76,0,0,1,7.661-5.454.891.891,0,0,0,1.134-.554,3.861,3.861,0,0,1,3.643-2.626,3.809,3.809,0,0,1,2.473.922.891.891,0,0,0,1.423-.948,2.865,2.865,0,0,1-.149-.865,2.917,2.917,0,1,1,5.835,0,2.865,2.865,0,0,1-.149.865.891.891,0,0,0,1.423.948,3.809,3.809,0,0,1,2.473-.922,3.861,3.861,0,0,1,3.643,2.626.891.891,0,0,0,1.134.554,5.766,5.766,0,0,1,7.57,6.467H17.076a.891.891,0,0,0,0,1.782H59.027Z" transform="translate(0 -129.079)"/>
      <path id="Path_1563699" data-name="Path 1563699" d="M153.174,42.181a3.749,3.749,0,0,0-.867,2.4v2.77a.89.89,0,0,0,1.327.775l6.335-3.574q.362.661.768,1.3l-.8,3.185a.89.89,0,0,0,.863,1.105h7.606a.89.89,0,0,0,.863-1.105l-.8-3.185q.405-.639.768-1.3l6.335,3.574a.89.89,0,0,0,1.327-.775v-2.77a3.749,3.749,0,0,0-.867-2.4l-4.223-5.066a24.275,24.275,0,0,0,.336-4.03,23.874,23.874,0,0,0-1.867-9.32,22.914,22.914,0,0,0-5.054-7.477.889.889,0,0,0-1.248,0,22.911,22.911,0,0,0-5.054,7.477,23.874,23.874,0,0,0-1.867,9.32,24.279,24.279,0,0,0,.335,4.024Zm.912,3.643V44.576a1.967,1.967,0,0,1,.455-1.257l3.334-4a23.587,23.587,0,0,0,1.3,3.635Zm7.856,2.535.506-2.024h4.316l.506,2.024Zm12.729-5.039a1.967,1.967,0,0,1,.455,1.257v1.247l-5.086-2.87a23.594,23.594,0,0,0,1.3-3.635ZM164.606,18.2a21.243,21.243,0,0,1,3.662,5.441h-7.325A21.243,21.243,0,0,1,164.606,18.2Zm-4.4,7.22h8.807a22.292,22.292,0,0,1,1.362,7.667,21.994,21.994,0,0,1-3.187,11.471h-5.157a22,22,0,0,1-3.187-11.471A22.3,22.3,0,0,1,160.2,25.418Z" transform="translate(-134.202 -16.033)"/>
      <path id="Path_1563700" data-name="Path 1563700" d="M231.936,123.984a3.742,3.742,0,1,0-3.742,3.742A3.746,3.746,0,0,0,231.936,123.984Zm-5.7,0a1.963,1.963,0,1,1,1.963,1.963A1.965,1.965,0,0,1,226.231,123.984Z" transform="translate(-197.79 -107.863)"/>
    </g>
  </g>
</svg>
