<svg xmlns="http://www.w3.org/2000/svg" width="62.067" height="61.29" viewBox="0 0 62.067 61.29">
  <g id="outsourcing_1_" data-name="outsourcing (1)" transform="translate(-6.75 -9.94)">
    <g id="Group_1157347" data-name="Group 1157347" transform="translate(7.5 10.69)">
      <path id="Path_1605581" data-name="Path 1605581" d="M153.753,351.352H121.835a.609.609,0,0,0-.615.6v16.873a.609.609,0,0,0,.615.6h31.918a.609.609,0,0,0,.615-.6V351.955A.609.609,0,0,0,153.753,351.352Z" transform="translate(-107.51 -309.641)" fill="#b3dafe"/>
      <path id="Path_1605582" data-name="Path 1605582" d="M368.19,351.352h-2.411a.6.6,0,0,1,.6.6v16.873a.6.6,0,0,1-.6.6h2.411a.6.6,0,0,0,.6-.6V351.955A.6.6,0,0,0,368.19,351.352Z" transform="translate(-322.092 -309.641)" fill="#8ac9fe"/>
      <path id="Path_1605583" data-name="Path 1605583" d="M204.052,95.745V93.859a2.317,2.317,0,0,1,1.664-2.222l4.6-1.352,4.6,1.352a2.316,2.316,0,0,1,1.664,2.222v1.885a.534.534,0,0,1-.534.534H204.586A.534.534,0,0,1,204.052,95.745Z" transform="translate(-180.031 -80.573)" fill="#88dbfd"/>
      <path id="Path_1605584" data-name="Path 1605584" d="M239.681,61.388v4.181a1.787,1.787,0,0,0,1.787,1.787h.361a1.787,1.787,0,0,0,1.787-1.787V61.388Z" transform="translate(-211.365 -55.276)" fill="#ffbd86"/>
      <path id="Path_1605585" data-name="Path 1605585" d="M222.769,14.245v1.144a4.006,4.006,0,0,0,8.012,0V14.245a3.555,3.555,0,0,0-3.555-3.555h-.9A3.555,3.555,0,0,0,222.769,14.245Z" transform="translate(-196.492 -10.69)" fill="#fed2a4"/>
      <g id="Group_1157345" data-name="Group 1157345" transform="translate(0 11.138)">
        <path id="Path_1605586" data-name="Path 1605586" d="M7.5,186.791v-1.885a2.317,2.317,0,0,1,1.664-2.223l4.6-1.351,4.6,1.351a2.317,2.317,0,0,1,1.664,2.223v1.885a.533.533,0,0,1-.533.533H8.034A.534.534,0,0,1,7.5,186.791Z" transform="translate(-7.5 -171.735)" fill="#88dbfd"/>
        <path id="Path_1605587" data-name="Path 1605587" d="M43.128,152.434v4.181a1.787,1.787,0,0,0,1.787,1.787h.361a1.787,1.787,0,0,0,1.787-1.787v-4.181Z" transform="translate(-38.833 -146.322)" fill="#ffbd86"/>
        <path id="Path_1605588" data-name="Path 1605588" d="M26.214,105.291v1.144a4.006,4.006,0,0,0,8.012,0v-1.144a3.555,3.555,0,0,0-3.555-3.555h-.9A3.555,3.555,0,0,0,26.214,105.291Z" transform="translate(-23.958 -101.736)" fill="#fed2a4"/>
      </g>
      <g id="Group_1157346" data-name="Group 1157346" transform="translate(48.043 11.138)">
        <path id="Path_1605589" data-name="Path 1605589" d="M400.609,186.791v-1.885a2.317,2.317,0,0,1,1.664-2.223l4.6-1.351,4.6,1.351a2.317,2.317,0,0,1,1.664,2.223v1.885a.534.534,0,0,1-.534.533H401.142A.533.533,0,0,1,400.609,186.791Z" transform="translate(-400.609 -171.735)" fill="#88dbfd"/>
        <path id="Path_1605590" data-name="Path 1605590" d="M436.237,152.434v4.181a1.787,1.787,0,0,0,1.787,1.787h.361a1.787,1.787,0,0,0,1.787-1.787v-4.181Z" transform="translate(-431.942 -146.322)" fill="#ffbd86"/>
        <path id="Path_1605591" data-name="Path 1605591" d="M419.323,105.291v1.144a4.006,4.006,0,0,0,8.012,0v-1.144a3.555,3.555,0,0,0-3.555-3.555h-.9A3.555,3.555,0,0,0,419.323,105.291Z" transform="translate(-417.067 -101.736)" fill="#fed2a4"/>
      </g>
      <path id="Path_1605592" data-name="Path 1605592" d="M204.294,257.593v-4.716a.607.607,0,0,1,.607-.607h11.253a.607.607,0,0,1,.607.607v4.715H204.294Z" transform="translate(-180.244 -222.799)" fill="#b3dafe"/>
      <path id="Path_1605593" data-name="Path 1605593" d="M285.084,252.271h-2.411a.607.607,0,0,1,.607.607v4.715h2.411v-4.715A.607.607,0,0,0,285.084,252.271Z" transform="translate(-249.12 -222.799)" fill="#8ac9fe"/>
      <path id="Path_1605594" data-name="Path 1605594" d="M178.031,284.361v25.621h18.8V284.361a.607.607,0,0,0-.607-.607H178.638A.607.607,0,0,0,178.031,284.361Z" transform="translate(-157.147 -250.192)" fill="#eaf6ff"/>
      <path id="Path_1605595" data-name="Path 1605595" d="M311.348,283.754h-2.411a.607.607,0,0,1,.607.607v25.621h2.411V284.361A.607.607,0,0,0,311.348,283.754Z" transform="translate(-272.181 -250.192)" fill="#d8ecfe"/>
      <path id="Path_1605596" data-name="Path 1605596" d="M238.887,461.806v4.421h4.126v-4.421a.389.389,0,0,0-.389-.389h-3.349A.389.389,0,0,0,238.887,461.806Z" transform="translate(-210.666 -406.437)" fill="#eaf6ff"/>
      <path id="Path_1605597" data-name="Path 1605597" d="M210.933,390.52v3.117a.364.364,0,0,0,.364.364h10.138a.364.364,0,0,0,.364-.364V390.52a.364.364,0,0,0-.364-.364H211.3A.364.364,0,0,0,210.933,390.52Z" transform="translate(-186.082 -343.878)" fill="#8ac9fe"/>
      <path id="Path_1605598" data-name="Path 1605598" d="M210.933,319.822v3.117a.364.364,0,0,0,.364.364h10.138a.364.364,0,0,0,.364-.364v-3.117a.364.364,0,0,0-.364-.364H211.3A.364.364,0,0,0,210.933,319.822Z" transform="translate(-186.082 -281.802)" fill="#8ac9fe"/>
    </g>
    <g id="Group_1157351" data-name="Group 1157351" transform="translate(7.5 10.69)">
      <path id="Path_1605599" data-name="Path 1605599" d="M147.382,351.351h6.371a.609.609,0,0,1,.615.6v16.873a.609.609,0,0,1-.615.6H121.835a.609.609,0,0,1-.615-.6V351.954a.609.609,0,0,1,.615-.6h6.371" transform="translate(-107.51 -309.64)" fill="none" stroke="#000" stroke-linecap="round" stroke-linejoin="round" stroke-miterlimit="10" stroke-width="1.5"/>
      <path id="Path_1605600" data-name="Path 1605600" d="M212.282,95.09l2.632.773a2.317,2.317,0,0,1,1.664,2.222V99.97a.534.534,0,0,1-.534.534H204.586a.534.534,0,0,1-.534-.534V98.085a2.317,2.317,0,0,1,1.664-2.222l2.632-.773" transform="translate(-180.031 -84.793)" fill="none" stroke="#000" stroke-linecap="round" stroke-linejoin="round" stroke-miterlimit="10" stroke-width="1.5"/>
      <path id="Path_1605601" data-name="Path 1605601" d="M243.616,78.62v2.1a1.788,1.788,0,0,1-1.787,1.787h-.361a1.788,1.788,0,0,1-1.787-1.787v-2.1" transform="translate(-211.365 -70.431)" fill="none" stroke="#000" stroke-linecap="round" stroke-linejoin="round" stroke-miterlimit="10" stroke-width="1.5"/>
      <path id="Path_1605602" data-name="Path 1605602" d="M222.769,14.245v1.144a4.006,4.006,0,0,0,8.012,0V14.245a3.555,3.555,0,0,0-3.555-3.555h-.9A3.555,3.555,0,0,0,222.769,14.245Z" transform="translate(-196.492 -10.69)" fill="none" stroke="#000" stroke-linecap="round" stroke-linejoin="round" stroke-miterlimit="10" stroke-width="1.5"/>
      <g id="Group_1157348" data-name="Group 1157348" transform="translate(0 11.138)">
        <path id="Path_1605603" data-name="Path 1605603" d="M15.729,186.12l2.632.774a2.317,2.317,0,0,1,1.664,2.223V191a.534.534,0,0,1-.533.533H8.034A.533.533,0,0,1,7.5,191v-1.885a2.317,2.317,0,0,1,1.664-2.223l2.632-.773" transform="translate(-7.5 -175.947)" fill="none" stroke="#000" stroke-linecap="round" stroke-linejoin="round" stroke-miterlimit="10" stroke-width="1.5"/>
        <path id="Path_1605604" data-name="Path 1605604" d="M47.061,169.67v2.1a1.787,1.787,0,0,1-1.787,1.787h-.361a1.787,1.787,0,0,1-1.787-1.787v-2.1" transform="translate(-38.832 -161.48)" fill="none" stroke="#000" stroke-linecap="round" stroke-linejoin="round" stroke-miterlimit="10" stroke-width="1.5"/>
        <path id="Path_1605605" data-name="Path 1605605" d="M26.214,105.291v1.144a4.006,4.006,0,0,0,8.012,0v-1.144a3.555,3.555,0,0,0-3.555-3.555h-.9A3.555,3.555,0,0,0,26.214,105.291Z" transform="translate(-23.958 -101.736)" fill="none" stroke="#000" stroke-linecap="round" stroke-linejoin="round" stroke-miterlimit="10" stroke-width="1.5"/>
      </g>
      <g id="Group_1157349" data-name="Group 1157349" transform="translate(48.043 11.138)">
        <path id="Path_1605606" data-name="Path 1605606" d="M408.838,186.121l2.632.773a2.317,2.317,0,0,1,1.664,2.223V191a.533.533,0,0,1-.534.533H401.142a.534.534,0,0,1-.533-.533v-1.885a2.317,2.317,0,0,1,1.664-2.223l2.632-.774" transform="translate(-400.609 -175.947)" fill="none" stroke="#000" stroke-linecap="round" stroke-linejoin="round" stroke-miterlimit="10" stroke-width="1.5"/>
        <path id="Path_1605607" data-name="Path 1605607" d="M440.171,169.67v2.1a1.787,1.787,0,0,1-1.787,1.787h-.361a1.787,1.787,0,0,1-1.787-1.787v-2.1" transform="translate(-431.942 -161.48)" fill="none" stroke="#000" stroke-linecap="round" stroke-linejoin="round" stroke-miterlimit="10" stroke-width="1.5"/>
        <path id="Path_1605608" data-name="Path 1605608" d="M419.323,105.291v1.144a4.006,4.006,0,0,0,8.012,0v-1.144a3.555,3.555,0,0,0-3.555-3.555h-.9A3.555,3.555,0,0,0,419.323,105.291Z" transform="translate(-417.067 -101.736)" fill="none" stroke="#000" stroke-linecap="round" stroke-linejoin="round" stroke-miterlimit="10" stroke-width="1.5"/>
      </g>
      <path id="Path_1605609" data-name="Path 1605609" d="M204.294,256.066v-3.188a.607.607,0,0,1,.607-.607h2.521" transform="translate(-180.297 -222.809)" fill="none" stroke="#000" stroke-linecap="round" stroke-linejoin="round" stroke-miterlimit="10" stroke-width="1.5"/>
      <path id="Path_1605610" data-name="Path 1605610" d="M265.24,252.271h4.513a.607.607,0,0,1,.607.607v3.188" transform="translate(-233.799 -222.809)" fill="none" stroke="#000" stroke-linecap="round" stroke-linejoin="round" stroke-miterlimit="10" stroke-width="1.5"/>
      <line id="Line_10323" data-name="Line 10323" y1="4.264" transform="translate(39.785 55.525)" fill="none" stroke="#000" stroke-linecap="round" stroke-linejoin="round" stroke-miterlimit="10" stroke-width="1.5"/>
      <path id="Path_1605611" data-name="Path 1605611" d="M196.83,301.5V284.361a.607.607,0,0,0-.607-.607H178.638a.607.607,0,0,0-.607.607v25.621" transform="translate(-157.147 -250.192)" fill="none" stroke="#000" stroke-linecap="round" stroke-linejoin="round" stroke-miterlimit="10" stroke-width="1.5"/>
      <path id="Path_1605612" data-name="Path 1605612" d="M243.012,466.225V461.8a.389.389,0,0,0-.389-.389h-3.349a.389.389,0,0,0-.389.389v4.421" transform="translate(-210.666 -406.436)" fill="none" stroke="#000" stroke-linecap="round" stroke-linejoin="round" stroke-miterlimit="10" stroke-width="1.5"/>
      <path id="Path_1605613" data-name="Path 1605613" d="M210.933,390.52v3.117a.364.364,0,0,0,.364.364h10.138a.364.364,0,0,0,.364-.364V390.52a.364.364,0,0,0-.364-.364H211.3A.364.364,0,0,0,210.933,390.52Z" transform="translate(-186.082 -343.878)" fill="none" stroke="#000" stroke-linecap="round" stroke-linejoin="round" stroke-miterlimit="10" stroke-width="1.5"/>
      <line id="Line_10324" data-name="Line 10324" y2="3.845" transform="translate(30.284 46.278)" fill="none" stroke="#000" stroke-linecap="round" stroke-linejoin="round" stroke-miterlimit="10" stroke-width="1.5"/>
      <path id="Path_1605614" data-name="Path 1605614" d="M210.933,319.822v3.117a.364.364,0,0,0,.364.364h10.138a.364.364,0,0,0,.364-.364v-3.117a.364.364,0,0,0-.364-.364H211.3A.364.364,0,0,0,210.933,319.822Z" transform="translate(-186.082 -281.802)" fill="none" stroke="#000" stroke-linecap="round" stroke-linejoin="round" stroke-miterlimit="10" stroke-width="1.5"/>
      <line id="Line_10325" data-name="Line 10325" y2="3.845" transform="translate(30.284 37.656)" fill="none" stroke="#000" stroke-linecap="round" stroke-linejoin="round" stroke-miterlimit="10" stroke-width="1.5"/>
      <line id="Line_10326" data-name="Line 10326" y1="3.826" transform="translate(30.396 20.044)" fill="none" stroke="#000" stroke-linecap="round" stroke-linejoin="round" stroke-miterlimit="10" stroke-width="1.5"/>
      <g id="Group_1157350" data-name="Group 1157350" transform="translate(17.671 24.824)">
        <line id="Line_10327" data-name="Line 10327" y1="0.965" x2="4.526" transform="translate(20.699)" fill="none" stroke="#000" stroke-linecap="round" stroke-linejoin="round" stroke-miterlimit="10" stroke-width="1.5"/>
        <line id="Line_10328" data-name="Line 10328" x1="4.526" y1="0.965" fill="none" stroke="#000" stroke-linecap="round" stroke-linejoin="round" stroke-miterlimit="10" stroke-width="1.5"/>
      </g>
    </g>
  </g>
</svg>
