<svg xmlns="http://www.w3.org/2000/svg" width="21.812" height="21.812" viewBox="0 0 21.812 21.812">
  <g id="zoom-in" transform="translate(0 -1)">
    <path id="Path_1605638" data-name="Path 1605638" d="M9.74,15.924h9.184V3.3H6.3V12.48H4V2.722A1.722,1.722,0,0,1,5.722,1H19.5A1.722,1.722,0,0,1,21.22,2.722V16.5A1.722,1.722,0,0,1,19.5,18.22H9.74Z" transform="translate(0.592)" fill="#fff"/>
    <path id="Path_1605639" data-name="Path 1605639" d="M9.148,5a1.148,1.148,0,1,0,0,2.3h2.968l-3.78,3.78A1.148,1.148,0,1,0,9.96,12.7l3.78-3.78v2.968a1.148,1.148,0,1,0,2.3,0V6.148q0-.043,0-.086a1.148,1.148,0,0,0-.333-.726L15.663,5.3a1.143,1.143,0,0,0-.7-.3l-.073,0Z" transform="translate(1.184 0.592)" fill="#fff"/>
    <path id="Path_1605640" data-name="Path 1605640" d="M0,14.722A1.722,1.722,0,0,1,1.722,13H6.314a1.722,1.722,0,0,1,1.722,1.722v4.592a1.722,1.722,0,0,1-1.722,1.722H1.722A1.722,1.722,0,0,1,0,19.314Z" transform="translate(0 1.776)" fill="#fff"/>
  </g>
</svg>
