<svg xmlns="http://www.w3.org/2000/svg" width="27.012" height="26.498" viewBox="0 0 27.012 26.498">
  <g id="Business_sale_drop_loss" transform="translate(-3.49 -4.578)">
    <path id="Path_1605641" data-name="Path 1605641" d="M47.583,44.094a1.067,1.067,0,0,0-1-.685H44.6a.224.224,0,0,1-.223-.224V41.153a1.208,1.208,0,0,0-1.207-1.207H39.856a1.208,1.208,0,0,0-1.207,1.207v2.032a.224.224,0,0,1-.223.224H36.339a1.074,1.074,0,0,0-.724,1.866L40.6,49.832a1.273,1.273,0,0,0,1.728,0l4.982-4.557a1.067,1.067,0,0,0,.276-1.181Z" transform="translate(-17.154 -19.094)" fill="#fff"/>
    <path id="Path_1605642" data-name="Path 1605642" d="M42.556,34.764h4.811a.805.805,0,0,0,0-1.61H42.556a.805.805,0,0,0,0,1.61Z" transform="translate(-20.656 -15.427)" fill="#fff"/>
    <path id="Path_1605643" data-name="Path 1605643" d="M42.556,28.957h4.811a.805.805,0,1,0,0-1.61H42.556a.805.805,0,1,0,0,1.61Z" transform="translate(-20.656 -12.292)" fill="#fff"/>
    <rect id="Rectangle_175031" data-name="Rectangle 175031" width="5.731" height="18.702" rx="2.465" transform="translate(11.302 11.873)" fill="#fff"/>
    <path id="Path_1605644" data-name="Path 1605644" d="M4.624,4.578H8.087A1.134,1.134,0,0,1,9.221,5.712V29.374a1.134,1.134,0,0,1-1.134,1.134H4.624A1.134,1.134,0,0,1,3.49,29.374V5.712A1.134,1.134,0,0,1,4.624,4.578Z" fill="#fff"/>
  </g>
</svg>
