<svg xmlns="http://www.w3.org/2000/svg" width="26.867" height="26.87" viewBox="0 0 26.867 26.87">
  <g id="profits" transform="translate(-0.026)">
    <g id="Group_1157371" data-name="Group 1157371" transform="translate(0.026 14.222)">
      <g id="Group_1157370" data-name="Group 1157370">
        <path id="Path_1605617" data-name="Path 1605617" d="M2.44,271H.813a.787.787,0,0,0-.787.787v11.073a.787.787,0,0,0,.787.787H2.44A2.364,2.364,0,0,0,4.8,281.286v-7.925A2.364,2.364,0,0,0,2.44,271Z" transform="translate(-0.026 -271)" fill="#fff"/>
      </g>
    </g>
    <g id="Group_1157373" data-name="Group 1157373" transform="translate(4.802)">
      <g id="Group_1157372" data-name="Group 1157372">
        <path id="Path_1605618" data-name="Path 1605618" d="M99.685,0a8.714,8.714,0,0,0-8.659,8.712,8.622,8.622,0,0,0,1.289,4.544,7.019,7.019,0,0,1,8.253.967h3.894a3.106,3.106,0,0,1,1.556.435,8.62,8.62,0,0,0,2.38-5.945A8.759,8.759,0,0,0,99.685,0Zm0,6.35a2.362,2.362,0,0,1,.92,4.537c-.044.018-.089.026-.133.041v.932a.787.787,0,1,1-1.574,0v-.93a3.065,3.065,0,0,1-1.16-.712.787.787,0,1,1,1.1-1.13,1.078,1.078,0,0,0,1.157.349.787.787,0,0,0-.306-1.513,2.362,2.362,0,0,1-.808-4.581c.007,0,.014,0,.021,0V2.362a.787.787,0,1,1,1.574,0v.969a3.269,3.269,0,0,1,1.44,1.028.787.787,0,1,1-1.205,1.012,1.212,1.212,0,0,0-1.291-.548.788.788,0,0,0,.269,1.528Z" transform="translate(-91.026)" fill="#fff"/>
      </g>
    </g>
    <g id="Group_1157375" data-name="Group 1157375" transform="translate(6.376 13.913)">
      <g id="Group_1157374" data-name="Group 1157374">
        <path id="Path_1605619" data-name="Path 1605619" d="M140.9,265.719a1.569,1.569,0,0,0-2.078.2l-4.251,5.29a1.9,1.9,0,0,1-1.165.5h-5.3a.787.787,0,1,1,0-1.574h4.776a1.574,1.574,0,1,0,0-3.149h-4.177c-.392,0-.588-.249-.9-.52a5.225,5.225,0,0,0-1.559-.96,5.514,5.514,0,0,0-5.227.592v10.387h11.861a4.793,4.793,0,0,0,3.779-1.942l4.566-6.613A1.586,1.586,0,0,0,140.9,265.719Z" transform="translate(-121.026 -265.111)" fill="#fff"/>
      </g>
    </g>
  </g>
</svg>
