<svg id="idea" xmlns="http://www.w3.org/2000/svg" width="27.26" height="27.26" viewBox="0 0 27.26 27.26">
  <g id="Group_1157377" data-name="Group 1157377" transform="translate(3.796 3.796)">
    <g id="Group_1157376" data-name="Group 1157376">
      <path id="Path_1605625" data-name="Path 1605625" d="M74.92,73.79l-2.259-2.259a.8.8,0,0,0-1.129,1.129L73.79,74.92A.8.8,0,0,0,74.92,73.79Z" transform="translate(-71.298 -71.298)" fill="#fff"/>
    </g>
  </g>
  <g id="Group_1157379" data-name="Group 1157379" transform="translate(0 12.831)">
    <g id="Group_1157378" data-name="Group 1157378">
      <path id="Path_1605626" data-name="Path 1605626" d="M4.046,241H.8a.8.8,0,0,0,0,1.6H4.046a.8.8,0,0,0,0-1.6Z" transform="translate(0 -241)" fill="#fff"/>
    </g>
  </g>
  <g id="Group_1157381" data-name="Group 1157381" transform="translate(22.415 12.831)">
    <g id="Group_1157380" data-name="Group 1157380">
      <path id="Path_1605627" data-name="Path 1605627" d="M425.046,241H421.8a.8.8,0,1,0,0,1.6h3.248a.8.8,0,1,0,0-1.6Z" transform="translate(-421 -241)" fill="#fff"/>
    </g>
  </g>
  <g id="Group_1157383" data-name="Group 1157383" transform="translate(19.608 3.796)">
    <g id="Group_1157382" data-name="Group 1157382">
      <path id="Path_1605628" data-name="Path 1605628" d="M371.9,71.532a.8.8,0,0,0-1.129,0l-2.259,2.259a.8.8,0,0,0,1.129,1.129l2.259-2.259A.8.8,0,0,0,371.9,71.532Z" transform="translate(-368.281 -71.298)" fill="#fff"/>
    </g>
  </g>
  <g id="Group_1157385" data-name="Group 1157385" transform="translate(12.831)">
    <g id="Group_1157384" data-name="Group 1157384">
      <path id="Path_1605629" data-name="Path 1605629" d="M241.8,0a.8.8,0,0,0-.8.8V4.046a.8.8,0,0,0,1.6,0V.8A.8.8,0,0,0,241.8,0Z" transform="translate(-241)" fill="#fff"/>
    </g>
  </g>
  <g id="Group_1157387" data-name="Group 1157387" transform="translate(6.446 6.444)">
    <g id="Group_1157386" data-name="Group 1157386">
      <path id="Path_1605630" data-name="Path 1605630" d="M132.728,122.572a7.22,7.22,0,0,0-6.2-1.342,7.081,7.081,0,0,0-5.239,5.159,7.225,7.225,0,0,0,1.933,6.948,3.924,3.924,0,0,1,1.038,2.737v.176a.791.791,0,0,0,.8.8h6.389a.791.791,0,0,0,.8-.8v-.176a3.965,3.965,0,0,1,1.1-2.785,7.211,7.211,0,0,0-.623-10.718Zm-4.472,3.243a2.336,2.336,0,0,0-2.312,1.724.8.8,0,1,1-1.55-.384,3.944,3.944,0,0,1,3.862-2.938.8.8,0,0,1,0,1.6Z" transform="translate(-121.072 -121.024)" fill="#fff"/>
    </g>
  </g>
  <g id="Group_1157389" data-name="Group 1157389" transform="translate(10.436 24.066)">
    <g id="Group_1157388" data-name="Group 1157388">
      <path id="Path_1605631" data-name="Path 1605631" d="M196,452v.8a2.4,2.4,0,0,0,2.4,2.4h1.6a2.4,2.4,0,0,0,2.4-2.4V452Z" transform="translate(-196 -452)" fill="#fff"/>
    </g>
  </g>
</svg>
