<svg xmlns="http://www.w3.org/2000/svg" width="24.306" height="24.306" viewBox="0 0 24.306 24.306">
  <g id="_x30_8" transform="translate(-2 -2)">
    <path id="Path_1605632" data-name="Path 1605632" d="M27.944,13H24.472a.868.868,0,0,0-.868.868v.868H21v1.736h2.6v.868a.868.868,0,0,0,.868.868h3.472a.868.868,0,0,0,.868-.868V13.868A.868.868,0,0,0,27.944,13Zm-1.736,3.472a.868.868,0,1,1,.868-.868A.869.869,0,0,1,26.208,16.472Z" transform="translate(-2.507 -1.451)" fill="#fff"/>
    <path id="Path_1605633" data-name="Path 1605633" d="M2,12l7.379,4.167v7.986L2.856,20.316A1.736,1.736,0,0,1,2,18.82Z" transform="translate(0 -1.319)" fill="#fff"/>
    <path id="Path_1605634" data-name="Path 1605634" d="M27.138,24H23.666a.868.868,0,0,0-.868.868v.868H18.747l-2.236-1.677-1.621.954L17.937,27.3a.866.866,0,0,0,.52.174H22.8v.868a.868.868,0,0,0,.868.868h3.472a.868.868,0,0,0,.868-.868V24.868A.868.868,0,0,0,27.138,24ZM25.4,27.472a.868.868,0,1,1,.868-.868A.869.869,0,0,1,25.4,27.472Z" transform="translate(-1.701 -2.903)" fill="#fff"/>
    <path id="Path_1605635" data-name="Path 1605635" d="M18.879,12,11.5,16.167v7.986l6.523-3.837a1.736,1.736,0,0,0,.856-1.5Z" transform="translate(-1.253 -1.319)" fill="#fff"/>
    <path id="Path_1605636" data-name="Path 1605636" d="M27.139,2H23.667a.868.868,0,0,0-.868.868v.868h-4.34a.866.866,0,0,0-.52.174L14.9,6.19l1.619.956,2.231-1.673H22.8V6.34a.868.868,0,0,0,.868.868h3.472a.868.868,0,0,0,.868-.868V2.868A.868.868,0,0,0,27.139,2ZM25.4,5.472a.868.868,0,1,1,.868-.868A.869.869,0,0,1,25.4,5.472Z" transform="translate(-1.702)" fill="#fff"/>
    <path id="Path_1605637" data-name="Path 1605637" d="M2,10.34l7.813,4.34,7.813-4.34L10.656,6.225a1.693,1.693,0,0,0-1.686,0Z" transform="translate(0 -0.528)" fill="#fff"/>
  </g>
</svg>
