<svg xmlns="http://www.w3.org/2000/svg" width="21.676" height="27.719" viewBox="0 0 21.676 27.719">
  <g id="review" transform="translate(-8.758 -2)">
    <path id="Path_1605620" data-name="Path 1605620" d="M15.28,39.318a.255.255,0,0,0,0,.058,1.112,1.112,0,0,1-1.1,1.069H11.449a1.109,1.109,0,0,1-1.109-1.109V28.874a1.109,1.109,0,0,1,1.109-1.109h2.723a1.109,1.109,0,0,1,1.109,1.109V39.318Zm14.9-9.469-1.413,8.888a1.194,1.194,0,0,1-1.189,1.015H18.508A3.484,3.484,0,0,1,16.8,39.3l-.4-.228V29.477l1.373-1.194a3.462,3.462,0,0,0,1.162-2.048l.706-3.988a.67.67,0,0,0,.009-.1.767.767,0,0,1,.313-.617.677.677,0,0,1,.608-.1c1.945.621,1.5,3.854,1.221,5.208a1.509,1.509,0,0,0,1.475,1.82h5.714a1.205,1.205,0,0,1,1.194,1.39Z" transform="translate(-0.874 -10.725)" fill="#fff"/>
    <path id="Path_1605621" data-name="Path 1605621" d="M13.791,54.15a1.681,1.681,0,1,0,1.681,1.681,1.685,1.685,0,0,0-1.681-1.681Zm0,2.24a.553.553,0,0,1-.559-.559.559.559,0,1,1,.559.559Z" transform="translate(-1.853 -28.835)" fill="#fff"/>
    <path id="Path_1605622" data-name="Path 1605622" d="M32.005,4.267a1.06,1.06,0,0,1-.268,1.091l-.68.662.174.885a1.045,1.045,0,0,1-.42,1.037,1.03,1.03,0,0,1-.626.206,1.018,1.018,0,0,1-.492-.125l-.841-.443-.782.443A1.065,1.065,0,0,1,26.529,6.9l.156-.934-.662-.612a1.065,1.065,0,0,1,.59-1.815l.934-.134.38-.818a1.063,1.063,0,0,1,1.9.009l.42.845.894.107A1.071,1.071,0,0,1,32.005,4.267Z" transform="translate(-9.369)" fill="#fff"/>
    <path id="Path_1605623" data-name="Path 1605623" d="M15.063,10.52a1.057,1.057,0,0,1-.268,1.086l-.68.662.174.885a1.069,1.069,0,0,1-.42,1.042,1.085,1.085,0,0,1-.626.2,1.018,1.018,0,0,1-.492-.125l-.841-.443-.782.443a1.066,1.066,0,0,1-1.547-1.122l.161-.934L9.081,11.6a1.066,1.066,0,0,1,.59-1.815l.934-.134.376-.818a1.062,1.062,0,0,1,1.909,0l.42.849.89.1a1.072,1.072,0,0,1,.863.729Z" transform="translate(0 -3.45)" fill="#fff"/>
    <path id="Path_1605624" data-name="Path 1605624" d="M49.057,11.612l-.68.662.179.885a1.066,1.066,0,0,1-1.547,1.122l-.841-.443-.782.443a1.031,1.031,0,0,1-.492.125,1.075,1.075,0,0,1-.626-.2,1.052,1.052,0,0,1-.42-1.042l.156-.934-.662-.612A1.065,1.065,0,0,1,43.938,9.8l.934-.134.376-.823a1.06,1.06,0,0,1,1.9,0h0l.416.849.894.1a1.06,1.06,0,0,1,.858.729,1.048,1.048,0,0,1-.268,1.086Z" transform="translate(-18.946 -3.456)" fill="#fff"/>
  </g>
</svg>
